<?xml version="1.0" encoding="UTF-8"?>
<svg version="1.1" xmlns="http://www.w3.org/2000/svg" width="820" height="1012">
<path d="M0 0 C270.6 0 541.2 0 820 0 C820 333.96 820 667.92 820 1012 C549.4 1012 278.8 1012 0 1012 C0 678.04 0 344.08 0 0 Z " fill="#F5F5F5" transform="translate(0,0)"/>
<path d="M0 0 C13.28352388 -0.09309697 26.56696885 -0.16396538 39.85075378 -0.20724869 C46.02041228 -0.22803314 52.18984588 -0.25618229 58.359375 -0.30175781 C64.3246173 -0.34554336 70.28964467 -0.36920567 76.2550354 -0.37950897 C78.51937234 -0.38684202 80.78369887 -0.40115992 83.04794312 -0.42292023 C116.11742421 -0.72779838 116.11742421 -0.72779838 126.3359375 8.3203125 C126.88507813 8.87460937 127.43421875 9.42890625 128 10 C128.91652344 10.86238281 128.91652344 10.86238281 129.8515625 11.7421875 C138.90768002 21.02952504 140.78698496 32.38115513 141.80021572 44.77658272 C141.99381982 46.93122025 142.2445367 49.07210291 142.50587463 51.2194519 C143.00793507 55.70768682 143.19318719 60.15135283 143.26538086 64.66455078 C143.28182144 65.48104095 143.29826202 66.29753113 143.31520081 67.13876343 C143.3502378 68.90152738 143.38344633 70.66432846 143.41499138 72.42715836 C143.4660358 75.2615035 143.52267493 78.09569082 143.58070374 80.92990112 C143.74462925 88.98648839 143.89859608 97.04325811 144.04956055 105.10009766 C144.4434931 125.9706791 144.9150762 146.82621742 145.9609375 167.67578125 C145.99976988 168.47790668 146.03860226 169.28003212 146.07861137 170.10646439 C147.11902186 191.2274706 148.92080024 211.70804542 164.37109375 227.62890625 C182.68255861 244.14459596 202.81770602 251.19077683 227.40722656 250.15087891 C247.5648963 248.97786197 267.51362558 238.88100577 280.94140625 223.796875 C301.71088274 199.05622155 296.94459255 156.16543174 297.2109375 125.72265625 C297.22533781 124.19242807 297.23979346 122.66220041 297.25430298 121.13197327 C297.31194077 114.88840275 297.36746225 108.64487349 297.40136719 102.40112305 C297.49971432 85.2419716 297.90927378 68.16776305 299.2890625 51.05859375 C299.34266308 50.34367327 299.39626366 49.62875278 299.45148849 48.89216805 C300.43871434 36.05041541 301.87183844 22.7716612 311 13 C311.78375 12.113125 312.5675 11.22625 313.375 10.3125 C322.73623445 2.06569822 332.65403585 -0.47815291 344.95751953 -0.34057617 C346.00261185 -0.34101425 347.04770416 -0.34145233 348.12446594 -0.34190369 C351.5441116 -0.33983054 354.96325356 -0.3165691 358.3828125 -0.29296875 C360.76748385 -0.28736756 363.15215867 -0.28309993 365.53683472 -0.28010559 C371.78724847 -0.26869807 378.03745026 -0.23926613 384.28778076 -0.20599365 C390.67619968 -0.17520438 397.06465313 -0.16158136 403.453125 -0.14648438 C415.96884269 -0.11439249 428.48440366 -0.06324582 441 0 C441.02355058 20.42185675 441.04108642 40.84371067 441.05181217 61.26557827 C441.05692872 70.7516825 441.06388079 80.2377782 441.07543945 89.72387695 C441.0855304 98.00950933 441.09188698 106.29513553 441.09408849 114.58077389 C441.09537164 118.95197859 441.09829986 123.32316562 441.10573006 127.69436455 C441.1323007 144.06530263 441.11250053 160.43311213 440.67499435 176.79930508 C440.62148687 178.80546644 440.57386544 180.81178222 440.52654362 182.81809902 C438.79026754 239.02074648 413.50014128 285.42392009 377.75 327.375 C377.25459717 327.95813965 376.75919434 328.5412793 376.2487793 329.14208984 C373.30483916 332.57660416 370.33255414 335.93175188 367 339 C366.34 339 365.68 339 365 339 C364.76667969 339.57621094 364.53335937 340.15242188 364.29296875 340.74609375 C361.82775033 345.04346847 357.53451502 347.71476096 353.66552734 350.70849609 C352.55606533 351.56880892 351.45216856 352.4363475 350.35400391 353.31103516 C336.8070013 364.07532498 321.53811806 372.45712263 305.203125 378.1953125 C303.055021 378.80444711 303.055021 378.80444711 302 380 C300.845 380.144375 299.69 380.28875 298.5 380.4375 C297.345 380.623125 296.19 380.80875 295 381 C294.67 381.66 294.34 382.32 294 383 C290.38680276 384.29116762 286.605973 385.05373134 282.875 385.9375 C281.87984375 386.18951172 280.8846875 386.44152344 279.859375 386.70117188 C260.16757713 391.43059016 240.37258262 392.55066185 220.1875 392.4375 C219.04934845 392.43479095 217.9111969 392.43208191 216.73855591 392.42929077 C200.18686832 392.3695762 184.17027556 391.85237493 168 388 C167.06430176 387.78617676 166.12860352 387.57235352 165.16455078 387.35205078 C149.78457031 383.78457031 149.78457031 383.78457031 147 381 C145.1448446 380.46933587 145.1448446 380.46933587 143.01171875 380.1328125 C137.63771186 379.02687302 132.82543717 377.07047738 127.8125 374.875 C126.43384766 374.27449829 126.43384766 374.27449829 125.02734375 373.66186523 C112.19399522 367.97425637 100.82344178 360.92219791 90 352 C89.1332666 351.2877124 89.1332666 351.2877124 88.24902344 350.56103516 C77.28545393 341.4925884 67.10976579 331.96198353 58.234375 320.7890625 C56.73839842 318.92170712 55.20628822 317.08276354 53.640625 315.2734375 C42.27966226 302.13958567 33.02757164 287.37070634 25 272 C24.63310059 271.30422852 24.26620117 270.60845703 23.88818359 269.89160156 C14.58724226 252.01541002 7.01654532 231.98767832 4 212 C3.81050781 210.81535156 3.62101563 209.63070312 3.42578125 208.41015625 C2.1329567 199.51806172 1.75777213 190.59966179 1.46508789 181.62670898 C1.40151014 179.71935423 1.40151014 179.71935423 1.33664799 177.77346706 C0.92347739 164.69508423 0.77668702 151.61909165 0.68359375 138.53515625 C0.66288151 135.9963712 0.64188315 133.45758848 0.62062073 130.91880798 C0.57167101 124.96804583 0.52631648 119.01726465 0.48259836 113.06646198 C0.43856138 107.11393594 0.38918264 101.16145892 0.33934593 95.20897865 C0.07494891 63.47213111 -0.06772353 31.73792735 0 0 Z " fill="#959597" transform="translate(192,292)"/>
<path d="M0 0 C12.60736564 0 25.13637572 0.07477641 37.72265625 0.55078125 C39.34934419 0.60996136 40.9760381 0.66897787 42.60273743 0.72784424 C46.87910223 0.88417161 51.15521893 1.04641736 55.43126678 1.2111702 C58.08291156 1.31328606 60.73459931 1.41423011 63.3862915 1.5151062 C83.72995704 2.29324214 104.06618483 3.10877761 124.375 4.5625 C125.19267853 4.62039703 126.01035706 4.67829407 126.85281372 4.73794556 C134.95306945 5.32304328 143.02869844 6.06581932 151.09765625 6.98828125 C151.77343719 7.06446182 152.44921814 7.1406424 153.14547729 7.21913147 C167.19320696 8.89806705 178.70064793 13.23698994 191 20 C192.39178558 20.74635768 193.78371368 21.49244966 195.17578125 22.23828125 C202.48323637 26.20927687 209.164657 30.32260536 215.5703125 35.6640625 C217.98405536 37.26229966 217.98405536 37.26229966 221.05078125 36.88671875 C224.01812688 35.99454993 225.65504487 35.09398181 228.0625 33.1875 C256.35995858 12.46742443 284.51108279 6.17963646 318.91015625 4.01171875 C319.56987616 3.97011753 320.22959606 3.92851631 320.90930748 3.88565445 C341.14180255 2.63103255 361.40768354 2.09072479 381.6673584 1.47198486 C385.90416963 1.34133683 390.14081295 1.20563856 394.37746143 1.06982994 C398.50141172 0.93790111 402.62542185 0.80793479 406.74945641 0.67866898 C408.69692737 0.61760819 410.64438788 0.55621292 412.59183693 0.49445724 C415.30181345 0.40904143 418.01185243 0.32599616 420.72192383 0.24365234 C421.50172104 0.21874222 422.28151825 0.19383209 423.08494568 0.16816711 C429.0649675 -0.00972433 435.00905389 0 441 0 C441 40.92 441 81.84 441 124 C423.489375 124.7115625 423.489375 124.7115625 405.625 125.4375 C400.18507568 125.65877563 400.18507568 125.65877563 394.63525391 125.88452148 C390.10205078 126.06851196 390.10205078 126.06851196 387.93463135 126.15642166 C386.39916462 126.21877864 384.86370361 126.28127626 383.32824707 126.34388351 C375.4007906 126.66709317 367.47345875 126.98753341 359.54443359 127.27026367 C347.00182417 127.7184967 334.49048336 128.32695655 321.97314453 129.24731445 C319.33798474 129.44020954 316.70227826 129.62376217 314.06640625 129.80664062 C275.750538 132.52620087 249.13244681 146.86755319 222 174 C217.68064776 173.89488302 215.1315201 170.52831067 212.25 167.6875 C201.34999625 157.30743896 189.15321495 148.32664074 176 141 C174.85402344 140.360625 173.70804688 139.72125 172.52734375 139.0625 C165.9525511 135.595275 159.71775388 133.46758492 152.39453125 132.3984375 C151.57683762 132.27489395 150.75914398 132.1513504 149.91667175 132.02406311 C139.92510611 130.59477676 129.88250692 130.01033288 119.8125 129.4375 C117.74622624 129.3138185 115.67998319 129.18962289 113.61376953 129.06494141 C107.41000948 128.69472924 101.20517672 128.34551857 95 128 C93.17594255 127.89699844 91.35188651 127.79397213 89.52783203 127.69091797 C69.3008918 126.55749506 49.07939336 125.71584748 28.8243103 125.30307007 C19.1763878 125.07200508 9.66120408 124.53673356 0 124 C0 83.08 0 42.16 0 0 Z " fill="#B4262A" transform="translate(192,42)"/>
<path d="M0 0 C1.04509232 -0.00043808 2.09018463 -0.00087616 3.16694641 -0.00132751 C6.58659206 0.00074564 10.00573403 0.02400707 13.42529297 0.04760742 C15.80996432 0.05320861 18.19463914 0.05747624 20.57931519 0.06047058 C26.82972894 0.0718781 33.07993073 0.10131004 39.33026123 0.13458252 C45.71868015 0.16537179 52.1071336 0.17899481 58.49560547 0.1940918 C71.01132316 0.22618368 83.52688413 0.27733036 96.04248047 0.34057617 C96.06603105 20.76243292 96.08356688 41.18428684 96.09429264 61.60615444 C96.09940919 71.09225867 96.10636125 80.57835438 96.11791992 90.06445312 C96.12801087 98.35008551 96.13436745 106.6357117 96.13656896 114.92135006 C96.13785211 119.29255476 96.14078033 123.66374179 96.14821053 128.03494072 C96.17478117 144.4058788 96.154981 160.7736883 95.71747482 177.13988125 C95.66396734 179.14604261 95.6163459 181.15235839 95.56902409 183.15867519 C93.83274801 239.36132265 68.54262175 285.76449626 32.79248047 327.71557617 C32.29707764 328.29871582 31.8016748 328.88185547 31.29125977 329.48266602 C28.34731963 332.91718034 25.37503461 336.27232805 22.04248047 339.34057617 C21.38248047 339.34057617 20.72248047 339.34057617 20.04248047 339.34057617 C19.80916016 339.91678711 19.57583984 340.49299805 19.33544922 341.08666992 C16.87023079 345.38404464 12.57699549 348.05533713 8.70800781 351.04907227 C7.5985458 351.90938509 6.49464903 352.77692367 5.39648438 353.65161133 C-8.15051823 364.41590115 -23.41940147 372.7976988 -39.75439453 378.53588867 C-41.90249853 379.14502328 -41.90249853 379.14502328 -42.95751953 380.34057617 C-45.61215074 380.79517475 -48.27941091 381.04300855 -50.95751953 381.34057617 C-51.13522296 357.60909637 -51.30085215 333.87755851 -51.4522953 310.14589596 C-51.52289884 299.1256991 -51.5973822 288.1055545 -51.68115234 277.08544922 C-51.75419688 267.47499783 -51.81980583 257.86452862 -51.87666357 248.25396734 C-51.90699549 243.17011283 -51.94093001 238.08634249 -51.98378372 233.00257683 C-52.02409227 228.20676268 -52.05437547 223.41098458 -52.07733345 218.61505699 C-52.08741071 216.86525776 -52.1009908 215.11547419 -52.11855507 213.3657341 C-52.21102134 203.9382021 -51.87922694 194.86314059 -50.44519615 185.53577518 C-47.46787449 166.028719 -47.91945251 145.76260127 -47.74658203 126.06323242 C-47.73217058 124.53297378 -47.7177099 123.00271561 -47.70320129 121.47245789 C-47.64558074 115.22891781 -47.59005712 108.98541906 -47.55615234 102.74169922 C-47.45780521 85.58254777 -47.04824575 68.50833922 -45.66845703 51.39916992 C-45.58805616 50.3267892 -45.58805616 50.3267892 -45.50603104 49.23274422 C-44.51880519 36.39099158 -43.08568109 23.11223737 -33.95751953 13.34057617 C-33.17376953 12.45370117 -32.39001953 11.56682617 -31.58251953 10.65307617 C-22.22128508 2.40627439 -12.30348368 -0.13757674 0 0 Z " fill="#959597" transform="translate(536.95751953125,291.659423828125)"/>
<path d="M0 0 C12.60736564 0 25.13637572 0.07477641 37.72265625 0.55078125 C39.34934419 0.60996136 40.9760381 0.66897787 42.60273743 0.72784424 C46.87910223 0.88417161 51.15521893 1.04641736 55.43126678 1.2111702 C58.08291156 1.31328606 60.73459931 1.41423011 63.3862915 1.5151062 C83.72995704 2.29324214 104.06618483 3.10877761 124.375 4.5625 C125.19267853 4.62039703 126.01035706 4.67829407 126.85281372 4.73794556 C134.95306945 5.32304328 143.02869844 6.06581932 151.09765625 6.98828125 C151.77343719 7.06446182 152.44921814 7.1406424 153.14547729 7.21913147 C167.19861737 8.89871368 178.69278889 13.24473504 191 20 C192.37988543 20.73498155 193.7600957 21.46935355 195.140625 22.203125 C203.8190156 26.88430816 212.96747843 31.96747843 220 39 C220.09614133 40.67024669 220.12187722 42.34458276 220.12025452 44.01759338 C220.12231651 45.64779419 220.12231651 45.64779419 220.12442017 47.31092834 C220.12082489 48.51357834 220.11722961 49.71622833 220.11352539 50.95532227 C220.11367142 52.21367889 220.11381744 53.47203552 220.1139679 54.76852417 C220.11425585 58.22911253 220.10835949 61.68966652 220.10139394 65.15024686 C220.09516003 68.76308091 220.09455657 72.37591567 220.09336853 75.98875427 C220.09025532 82.83463508 220.08204208 89.6805 220.07201904 96.5263738 C220.06085757 104.31826589 220.05534737 112.11015873 220.05032361 119.90205681 C220.03985946 135.93471386 220.02226023 151.9673549 220 168 C216.70713167 169.07857509 216.18727545 169.08445756 212.8125 167.5625 C209.96248927 165.79991475 207.57977476 163.77434644 205.125 161.5 C179.57983829 138.24957315 153.73882139 131.51515847 120.125 129.5 C118.03596174 129.37139142 115.94693192 129.24264575 113.85791016 129.11376953 C85.52692173 127.38248118 57.20473485 125.88143344 28.8243103 125.30307007 C19.1763878 125.07200508 9.66120408 124.53673356 0 124 C0 83.08 0 42.16 0 0 Z " fill="#EB202B" transform="translate(192,42)"/>
<path d="M0 0 C1.47928427 2.86752409 2.45505296 5.49616998 3.25 8.625 C8.00351383 24.73018866 20.6814169 36.06941688 34.90673828 44.07275391 C53.03938209 53.65602539 73.18214357 55.97933403 93.2265625 51.22265625 C112.48957426 44.98112138 129.15154424 34.34932622 140 17 C141.93499398 13.07735913 143.58371753 9.13703564 145 5 C145.33 5 145.66 5 146 5 C146 64.73 146 124.46 146 186 C120.39855036 192.14434791 98.02767675 195.5823655 72.1875 195.4375 C71.04934845 195.43479095 69.9111969 195.43208191 68.73855591 195.42929077 C52.19351203 195.36960017 36.16124714 194.8709574 20 191 C18.58847656 190.67128906 18.58847656 190.67128906 17.1484375 190.3359375 C1.665625 186.665625 1.665625 186.665625 0 185 C-0.09765691 182.60931863 -0.12996979 180.24756733 -0.12025452 177.85643005 C-0.12110894 177.10011844 -0.12196337 176.34380683 -0.12284368 175.56457669 C-0.12450076 173.01104518 -0.11897342 170.45757827 -0.11352539 167.90405273 C-0.11324354 166.08126833 -0.11340121 164.2584838 -0.1139679 162.43569946 C-0.11425596 157.47103112 -0.10835779 152.50638672 -0.10139394 147.54172397 C-0.09516188 142.35936525 -0.09455672 137.17700605 -0.09336853 131.99464417 C-0.09025478 122.17382442 -0.08204079 112.35301574 -0.07201904 102.53220087 C-0.06085927 91.35464094 -0.0553478 80.17708048 -0.05032361 68.99951637 C-0.03985822 45.99967143 -0.02225792 22.99983633 0 0 Z " fill="#55565B" transform="translate(340,489)"/>
<path d="M0 0 C1.53171234 0.01460038 3.06335421 0.05594334 4.59375 0.12109375 C5.75197266 0.12979492 5.75197266 0.12979492 6.93359375 0.13867188 C10.79396019 0.222302 12.82307222 0.37814189 16.09375 2.55859375 C19.05192184 2.25673948 21.42812658 1.89140546 24.09375 0.55859375 C28.19179469 0.26163399 32.2987124 0.2805337 36.40625 0.24609375 C37.54771484 0.21708984 38.68917969 0.18808594 39.86523438 0.15820312 C48.39238929 0.09341469 48.39238929 0.09341469 52.14453125 2.58203125 C52.78777344 3.23429688 53.43101562 3.8865625 54.09375 4.55859375 C58.51334411 4.48730997 61.06826162 4.09694055 64.98828125 2.0390625 C70.65196118 -0.44144193 76.83282346 -0.03462484 82.90625 -0.06640625 C84.12634766 -0.11152344 85.34644531 -0.15664063 86.60351562 -0.203125 C95.41585806 -0.26941882 100.58530817 1.61181738 107.09375 7.55859375 C108.09498901 8.38496338 108.09498901 8.38496338 109.11645508 9.22802734 C116.19076519 17.56626223 115.70069779 27.08677848 115.66015625 37.44921875 C115.66539879 39.08347933 115.67167757 40.71773689 115.67893982 42.35198975 C115.68930133 45.76117292 115.68484002 49.1699375 115.67016602 52.57910156 C115.6529174 56.94289964 115.6765691 61.30538841 115.71165562 65.66904068 C115.73362458 69.03717735 115.7321906 72.4049998 115.7238903 75.77318573 C115.72307179 77.38231602 115.72991625 78.99146959 115.74466133 80.60053253 C115.76211529 82.8481156 115.74756624 85.09333187 115.72485352 87.34082031 C115.72389175 88.61717346 115.72292999 89.89352661 115.72193909 91.20855713 C114.92764312 95.44441644 113.44231416 96.92828957 110.09375 99.55859375 C104.40820555 100.6401992 98.81129035 100.1311072 93.34375 98.30859375 C90.71411176 96.26331956 90.60546314 95.74519228 90.09375 92.55859375 C90.00347972 90.44625375 89.96863963 88.3313088 89.96777344 86.21704102 C89.96396667 84.93213272 89.96015991 83.64722443 89.95623779 82.32337952 C89.95604393 81.63941668 89.95585007 80.95545383 89.95565033 80.25076485 C89.95222167 77.36459837 89.93084629 74.47865454 89.91041946 71.59256649 C89.87245703 66.22403347 89.84113691 60.85574333 89.84326172 55.48706055 C89.84404936 51.7473798 89.82066924 48.00852208 89.7813797 44.26905632 C89.77093018 42.84698119 89.76938808 41.42481096 89.77703094 40.00271797 C89.78666659 38.01163827 89.7626778 36.02048236 89.73730469 34.02954102 C89.73183624 32.33221581 89.73183624 32.33221581 89.72625732 30.6006012 C88.767765 25.9907877 85.90947272 23.77263581 82.1015625 21.2265625 C79.5361435 20.37308653 77.64354767 20.53973822 74.96875 20.87109375 C74.09992188 20.97035156 73.23109375 21.06960938 72.3359375 21.171875 C70.06567498 21.45234545 70.06567498 21.45234545 68.09375 22.55859375 C68.09010437 23.4369841 68.08645874 24.31537445 68.08270264 25.22038269 C68.04481338 33.50424022 67.98795012 41.78770443 67.90984726 50.07128429 C67.87036211 54.32984633 67.83817888 58.58820128 67.82275391 62.84692383 C67.80759391 66.95798517 67.77316076 71.06847723 67.72544098 75.17928505 C67.71062027 76.74648397 67.70270858 78.31376417 67.70186615 79.88103294 C67.69949665 82.07909996 67.67242252 84.27559343 67.63964844 86.47338867 C67.62632477 88.34869514 67.62632477 88.34869514 67.61273193 90.2618866 C67.00276684 94.13654229 65.82126868 95.79351466 63.09375 98.55859375 C60.25614474 99.97739638 57.81692025 99.69064095 54.65625 99.68359375 C53.50253906 99.68617188 52.34882812 99.68875 51.16015625 99.69140625 C48.09375 99.55859375 48.09375 99.55859375 45.09375 98.55859375 C42.24442238 94.82746332 41.71789282 92.04692047 41.70898438 87.41064453 C41.69887329 86.19232941 41.68876221 84.97401428 41.67834473 83.71878052 C41.68136597 82.41037201 41.68438721 81.1019635 41.6875 79.75390625 C41.67825872 78.38775393 41.66728532 77.02161233 41.65466309 75.65548706 C41.61797503 71.33153639 41.60419233 67.00767708 41.59375 62.68359375 C41.58163706 57.67663493 41.5599232 52.67009678 41.51374817 47.66332626 C41.50026213 45.66769584 41.50453278 43.67197069 41.50915527 41.67630005 C41.4434566 31.40235288 41.4434566 31.40235288 36.46875 22.68359375 C30.07115378 19.65315344 24.69152705 20.59511303 18.09375 22.55859375 C18.10263245 23.4369841 18.11151489 24.31537445 18.1206665 25.22038269 C18.2008605 33.50396038 18.26173883 41.78740744 18.30099869 50.07128429 C18.32186132 54.32999945 18.35015431 58.58839348 18.39550781 62.84692383 C18.43901351 66.95774295 18.46289707 71.06825345 18.47325897 75.17928505 C18.48064193 76.74658376 18.49505936 78.31386584 18.51667023 79.88103294 C18.54576852 82.07885423 18.54970354 84.27540532 18.54785156 86.47338867 C18.55673401 87.72359299 18.56561646 88.9737973 18.57476807 90.2618866 C18.00367571 94.17592723 16.89290292 95.8105773 14.09375 98.55859375 C10.93365467 99.61195886 8.5384364 99.75892263 5.21875 99.80859375 C4.19007813 99.834375 3.16140625 99.86015625 2.1015625 99.88671875 C-1.59504068 99.48345295 -4.25853721 98.20630654 -6.90625 95.55859375 C-7.01742243 92.78537057 -7.06364709 90.03682112 -7.06738281 87.26269531 C-7.07234772 86.3927594 -7.07731262 85.52282349 -7.08242798 84.62652588 C-7.09709251 81.73408226 -7.10385959 78.84169352 -7.109375 75.94921875 C-7.11512403 73.94480385 -7.12088179 71.94038897 -7.12664795 69.93597412 C-7.13717091 65.72586815 -7.14300472 61.51578134 -7.14648438 57.30566406 C-7.15196419 51.91068762 -7.17597584 46.5159642 -7.20445633 41.12106705 C-7.22308304 36.97751121 -7.22828839 32.83401622 -7.22982025 28.69042206 C-7.2328485 26.70170461 -7.24088281 24.71298828 -7.25400543 22.72431183 C-7.27106246 19.94003617 -7.26918621 17.15637705 -7.26269531 14.37207031 C-7.2719101 13.55005127 -7.28112488 12.72803223 -7.2906189 11.88110352 C-7.24598088 5.76787505 -6.91406524 0.98871133 0 0 Z " fill="#222222" transform="translate(585.90625,767.44140625)"/>
<path d="M0 0 C0.92272202 -0.00287018 1.84544403 -0.00574036 2.79612732 -0.00869751 C4.73315042 -0.01072565 6.6701946 -0.00528403 8.60717773 0.00732422 C11.55434335 0.02341429 14.50014165 0.0074232 17.44726562 -0.01171875 C19.33984674 -0.00973646 21.23242702 -0.00589306 23.125 0 C23.99604874 -0.00607269 24.86709747 -0.01214539 25.76454163 -0.0184021 C34.46919596 0.08062528 40.81492477 2.53005691 47.23828125 8.5 C52.24972565 13.91235996 55.21284628 20.58025058 55.31835938 27.94799805 C55.33757446 29.03650558 55.35678955 30.12501312 55.37658691 31.24650574 C55.38508667 32.41426041 55.39358643 33.58201508 55.40234375 34.78515625 C55.4137439 35.99734329 55.42514404 37.20953033 55.43688965 38.45845032 C55.45576797 41.02296469 55.46884902 43.58752735 55.4765625 46.15209961 C55.49593889 50.05474683 55.55798485 53.95527047 55.62109375 57.85742188 C55.63415867 60.35415421 55.64465771 62.85090156 55.65234375 65.34765625 C55.67703735 66.50528976 55.70173096 67.66292328 55.72717285 68.8556366 C55.67823663 77.8587925 53.23795745 84.07943726 46.89245605 90.54032898 C39.02720323 97.7500828 32.72266572 99.54608958 22.29296875 99.6015625 C21.03712982 99.61011261 21.03712982 99.61011261 19.75592041 99.61883545 C17.98752088 99.62825824 16.21910401 99.63480859 14.45068359 99.63867188 C11.76888754 99.6483552 9.08786577 99.67939488 6.40625 99.7109375 C4.68099409 99.71747089 2.95573275 99.72272004 1.23046875 99.7265625 C0.4395282 99.7389093 -0.35141235 99.7512561 -1.1663208 99.76397705 C-9.17073672 99.73253422 -16.83180002 97.65129387 -23.00390625 92.3984375 C-31.09600717 82.83777011 -32.1590577 76.14061521 -32.171875 63.9375 C-32.1752034 62.83296478 -32.1785318 61.72842957 -32.18196106 60.59042358 C-32.18701318 58.25885432 -32.18936992 55.92727786 -32.18920898 53.59570312 C-32.19139431 50.0428467 -32.20956538 46.49030151 -32.22851562 42.9375 C-32.23145019 40.66666772 -32.23343456 38.39583398 -32.234375 36.125 C-32.24156052 35.06954987 -32.24874603 34.01409973 -32.25614929 32.92666626 C-32.22425043 22.54726771 -30.57820585 15.40838468 -23.37890625 7.5234375 C-21.00390625 5.3984375 -21.00390625 5.3984375 -19.00390625 5.3984375 C-19.00390625 4.7384375 -19.00390625 4.0784375 -19.00390625 3.3984375 C-12.54662689 0.83380539 -6.92147614 -0.04836687 0 0 Z " fill="#222222" transform="translate(501.00390625,767.6015625)"/>
<path d="M0 0 C0.93780304 -0.0099852 1.87560608 -0.0199704 2.84182739 -0.03025818 C4.81328968 -0.04535296 6.78482764 -0.05248667 8.75634766 -0.05200195 C11.7438181 -0.05856302 14.72795954 -0.1131342 17.71484375 -0.16992188 C29.20820975 -0.27134188 37.80072787 0.26579121 46.78808594 8.18212891 C54.10834794 15.39275028 55.2484814 24.90941587 55.3828125 34.69140625 C55.40134277 35.53469482 55.41987305 36.3779834 55.43896484 37.24682617 C55.3646281 44.67248434 53.34355882 49.98723387 48.1328125 55.31640625 C41.05335391 60.08142645 35.01090394 60.94005299 26.6953125 60.796875 C25.75220215 60.79263016 24.8090918 60.78838531 23.83740234 60.78401184 C20.85223732 60.76734195 17.86777032 60.729712 14.8828125 60.69140625 C12.84766606 60.67634429 10.81250895 60.66265854 8.77734375 60.65039062 C3.8122348 60.6174768 -1.15235837 60.56577624 -6.1171875 60.50390625 C-5.80794536 62.60855418 -5.4946819 64.71261155 -5.1796875 66.81640625 C-4.91865234 68.57404297 -4.91865234 68.57404297 -4.65234375 70.3671875 C-4.19625719 73.52032028 -4.19625719 73.52032028 -3.1171875 76.50390625 C-0.20028182 77.6289304 2.67128734 77.63791647 5.77148438 77.66162109 C6.73928833 77.67188324 7.70709229 77.68214539 8.70422363 77.69271851 C10.26215637 77.7036705 10.26215637 77.7036705 11.8515625 77.71484375 C14.05339299 77.74290111 16.25521582 77.77156548 18.45703125 77.80078125 C21.92659379 77.84211486 25.3960114 77.87900617 28.86572266 77.90527344 C32.21546882 77.93282772 35.56456541 77.9786859 38.9140625 78.02734375 C39.95268433 78.03059662 40.99130615 78.03384949 42.06140137 78.03720093 C43.5131073 78.06205063 43.5131073 78.06205063 44.99414062 78.08740234 C46.26843933 78.09953262 46.26843933 78.09953262 47.56848145 78.11190796 C50.42153336 78.59515407 51.79212147 79.52684289 53.8828125 81.50390625 C55.23302227 85.55453555 55.44010054 89.26851714 54.8828125 93.50390625 C53.08887582 96.37420494 51.90017974 97.99522263 48.8828125 99.50390625 C47.11825222 99.60994023 45.34973141 99.65269763 43.58203125 99.66503906 C42.47327637 99.67464661 41.36452148 99.68425415 40.22216797 99.69415283 C39.01705566 99.69840271 37.81194336 99.70265259 36.5703125 99.70703125 C35.33168457 99.71273132 34.09305664 99.7184314 32.81689453 99.7243042 C30.1872999 99.73376882 27.55781974 99.74065707 24.92822266 99.74414062 C22.24546604 99.74851165 19.5630335 99.76234603 16.88037109 99.78515625 C13.00608614 99.81577166 9.13220531 99.82620801 5.2578125 99.83203125 C3.47443481 99.85055145 3.47443481 99.85055145 1.6550293 99.8694458 C-7.63467406 99.84486026 -16.48848386 99.01421205 -23.515625 92.38671875 C-28.58482942 86.42731257 -32.22139324 80.13084993 -32.27832031 72.24145508 C-32.28792786 71.16636185 -32.2975354 70.09126862 -32.30743408 68.9835968 C-32.31168396 67.82111923 -32.31593384 66.65864166 -32.3203125 65.4609375 C-32.32601257 64.26337326 -32.33171265 63.06580902 -32.33758545 61.83195496 C-32.34703967 59.29414759 -32.3535711 56.75632792 -32.35742188 54.21850586 C-32.36710536 50.34922618 -32.39811666 46.48048261 -32.4296875 42.61132812 C-32.43621985 40.1445344 -32.44146941 37.67773688 -32.4453125 35.2109375 C-32.4576593 34.05858109 -32.4700061 32.90622467 -32.48272705 31.71894836 C-32.45973754 23.36260933 -31.59501616 16.52318529 -25.6171875 10.19140625 C-25.029375 9.55589844 -24.4415625 8.92039062 -23.8359375 8.265625 C-23.26875 7.68425781 -22.7015625 7.10289062 -22.1171875 6.50390625 C-21.67037628 6.00672592 -21.22356506 5.50954559 -20.76321411 4.99729919 C-15.29747897 0.03839377 -6.97421715 0.02641357 0 0 Z " fill="#232222" transform="translate(245.1171875,767.49609375)"/>
<path d="M0 0 C1.07314453 -0.00386719 1.07314453 -0.00386719 2.16796875 -0.0078125 C5.14208872 0.04777853 7.32321367 0.11576013 9.8046875 1.84375 C12.18707905 5.5303705 11.99628655 8.91368581 11.98852539 13.17456055 C11.98867142 13.847995 11.98881744 14.52142944 11.9889679 15.215271 C11.98827175 17.43911979 11.98049332 19.66288461 11.97265625 21.88671875 C11.97079101 23.42942764 11.96936761 24.97213711 11.96836853 26.5148468 C11.96455169 30.57383868 11.95472851 34.63279473 11.94366455 38.69177246 C11.93343252 42.83422359 11.92886707 46.9766805 11.92382812 51.11914062 C11.91310551 59.24611018 11.89603907 67.37305063 11.875 75.5 C15.42513683 72.02470466 15.42513683 72.02470466 18.5625 68.1875 C18.995625 67.630625 19.42875 67.07375 19.875 66.5 C20.535 66.5 21.195 66.5 21.875 66.5 C22.37 64.52 22.37 64.52 22.875 62.5 C23.535 62.5 24.195 62.5 24.875 62.5 C25.1225 61.95859375 25.37 61.4171875 25.625 60.859375 C27.15488604 57.9717151 28.96650997 55.40223982 30.875 52.75 C31.57625 51.76515625 32.2775 50.7803125 33 49.765625 C33.61875 49.01796875 34.2375 48.2703125 34.875 47.5 C35.535 47.5 36.195 47.5 36.875 47.5 C37.16375 46.9225 37.4525 46.345 37.75 45.75 C38.12125 45.0075 38.4925 44.265 38.875 43.5 C39.16882568 42.8601416 39.46265137 42.2202832 39.76538086 41.56103516 C41.73441594 37.90369871 44.22643198 35.49186498 47.875 33.5 C51.88818501 32.79411648 55.7539058 32.92849451 59.8125 33.125 C60.87791016 33.15207031 61.94332031 33.17914062 63.04101562 33.20703125 C65.65446823 33.27734836 68.26365175 33.37569562 70.875 33.5 C70.12141762 37.95675512 68.79817627 40.34766887 66 43.9375 C64.79537109 45.49017578 64.79537109 45.49017578 63.56640625 47.07421875 C63.13344238 47.62384277 62.70047852 48.1734668 62.25439453 48.73974609 C60.78700349 50.61229289 59.34370818 52.50189195 57.90234375 54.39453125 C56.91468475 55.68016577 55.9264144 56.96533089 54.9375 58.25 C54.46521973 58.87060303 53.99293945 59.49120605 53.50634766 60.13061523 C52.34280694 61.62481759 51.11425682 63.0679699 49.875 64.5 C49.215 64.5 48.555 64.5 47.875 64.5 C47.648125 65.015625 47.42125 65.53125 47.1875 66.0625 C45.875 68.5 45.875 68.5 44.59375 70.078125 C42.16667071 73.07152279 40.93834534 74.84120848 40.5625 78.75 C42.1365615 83.24731857 44.4164216 86.32681632 47.3046875 90.08984375 C50.4611117 94.21024341 53.34107259 98.51567521 56.25 102.8125 C59.41087912 107.47989749 62.57219049 112.13405144 65.93359375 116.66015625 C66.40039551 117.29203857 66.86719727 117.9239209 67.34814453 118.57495117 C68.21524673 119.74030745 69.09197574 120.89858751 69.97998047 122.0480957 C72.39984408 125.30857022 73.37883384 127.42420986 72.875 131.5 C69.10652584 132.70209556 65.49573676 132.632906 61.5625 132.625 C60.28761719 132.62757813 59.01273437 132.63015625 57.69921875 132.6328125 C47.71594442 132.28610021 47.71594442 132.28610021 44 128.8125 C40.45435005 124.20690708 37.4010882 119.23824017 34.3046875 114.32421875 C31.85316764 110.44148205 29.30957484 106.62456014 26.75 102.8125 C23.72403045 98.28759273 20.70872405 93.75681981 17.75 89.1875 C17.19054687 88.32511719 16.63109375 87.46273437 16.0546875 86.57421875 C14.875 84.5 14.875 84.5 14.875 82.5 C13.885 82.5 12.895 82.5 11.875 82.5 C11.90118408 83.80670654 11.92736816 85.11341309 11.9543457 86.4597168 C12.04494324 91.31435988 12.10228445 96.16892845 12.1496582 101.02416992 C12.17478051 103.1242327 12.20888458 105.22420823 12.25219727 107.32397461 C12.31294871 110.3451084 12.34123263 113.36508496 12.36328125 116.38671875 C12.38908768 117.32335861 12.4148941 118.25999847 12.44148254 119.22502136 C12.44346981 123.85850449 12.4018611 125.82839976 9.45776367 129.58129883 C4.94979496 132.93020951 0.4224632 133.10808731 -5.125 132.5 C-9.1476217 130.93564712 -10.71649109 130.11276337 -13.125 126.5 C-13.38506222 124.25512123 -13.38506222 124.25512123 -13.39915466 121.57925415 C-13.40912979 120.56424332 -13.41910492 119.54923248 -13.42938232 118.50346375 C-13.430047 117.39066544 -13.43071167 116.27786713 -13.43139648 115.13134766 C-13.44388176 113.37246468 -13.44388176 113.37246468 -13.45661926 111.57804871 C-13.47660612 108.36101898 -13.48736355 105.14413937 -13.49244571 101.92705584 C-13.49608896 99.91670511 -13.50232885 97.90637929 -13.5094471 95.89603806 C-13.53394292 88.88120174 -13.54699372 81.86643939 -13.55053711 74.8515625 C-13.55417235 68.3149906 -13.58406589 61.77888827 -13.62594169 55.24245989 C-13.66064385 49.62876325 -13.67608553 44.01522222 -13.67678314 38.40141904 C-13.67757602 35.04930335 -13.68631808 31.69766593 -13.71478081 28.34566116 C-13.74157919 24.60583649 -13.73690273 20.86731246 -13.72436523 17.12744141 C-13.73919952 16.01869156 -13.75403381 14.90994171 -13.76931763 13.76759338 C-13.69784574 6.29621943 -13.69784574 6.29621943 -10.83021545 2.31039429 C-7.23931642 -0.09272044 -4.17345236 -0.16724217 0 0 Z " fill="#222222" transform="translate(384.125,734.5)"/>
<path d="M0 0 C0.82975342 -0.0049649 1.65950684 -0.00992981 2.5144043 -0.01504517 C5.25586785 -0.02963499 7.99727356 -0.03646308 10.73876953 -0.04199219 C12.64682008 -0.04774574 14.55487062 -0.05350345 16.46292114 -0.05926514 C20.46258818 -0.06976571 24.46223518 -0.07561473 28.46191406 -0.07910156 C33.58206559 -0.08458787 38.7019514 -0.10862284 43.82201958 -0.13707352 C47.76316092 -0.15571326 51.70423838 -0.16090619 55.64542007 -0.16243744 C57.53283264 -0.16546088 59.42024416 -0.17347898 61.30761337 -0.18662262 C63.95007213 -0.20371296 66.59188311 -0.20179577 69.234375 -0.1953125 C70.01068268 -0.20452728 70.78699036 -0.21374207 71.58682251 -0.22323608 C76.38317646 -0.18644749 79.67291973 0.6156966 83.74658203 3.16113281 C86.70322212 7.26283005 86.41528121 12.31910623 85.74658203 17.16113281 C83.55531387 20.25913263 82.33601867 20.96465393 78.74658203 22.16113281 C76.46273033 22.24491909 74.17648103 22.26843196 71.89111328 22.25878906 C70.89865852 22.25666664 70.89865852 22.25666664 69.88615417 22.25450134 C67.77708375 22.24891277 65.66812026 22.23636246 63.55908203 22.22363281 C62.12744294 22.21861633 60.69580218 22.21405368 59.26416016 22.20996094 C55.75826615 22.19894712 52.25243453 22.18169036 48.74658203 22.16113281 C48.75546448 23.45517029 48.76434692 24.74920776 48.77349854 26.0824585 C48.85451789 38.26613203 48.91451559 50.44975105 48.95383072 62.63363266 C48.9747224 68.89779623 49.00306943 75.16174266 49.04833984 81.42578125 C49.09174039 87.46877431 49.11570722 93.51155827 49.126091 99.55469513 C49.13349273 101.86244245 49.14794621 104.17017809 49.16950226 106.47783661 C49.19845853 109.70552982 49.20254119 112.93235445 49.20068359 116.16015625 C49.2150647 117.11825195 49.2294458 118.07634766 49.2442627 119.06347656 C49.20378562 125.54559031 49.20378562 125.54559031 46.84320068 128.72369385 C43.05559851 131.32046887 40.47349237 131.38274269 35.87158203 131.47363281 C34.63666016 131.51101563 33.40173828 131.54839844 32.12939453 131.58691406 C28.74658203 131.16113281 28.74658203 131.16113281 26.36376953 129.26660156 C24.09640454 126.3146457 23.61979082 124.70284041 23.58836365 121.04830933 C23.57857483 120.18731628 23.56878601 119.32632324 23.55870056 118.4392395 C23.55006737 117.01936234 23.55006737 117.01936234 23.54125977 115.57080078 C23.53136017 114.57564453 23.52146057 113.58048828 23.51126099 112.55517578 C23.4795871 109.25458178 23.45486528 105.95397336 23.43017578 102.65332031 C23.40961134 100.36930968 23.38861501 98.08530289 23.36720276 95.80130005 C23.31192944 89.78105786 23.26254338 83.76078103 23.21435547 77.74047852 C23.16417881 71.60071722 23.10847275 65.46100642 23.05322266 59.32128906 C22.94557675 47.26794675 22.8441461 35.21456065 22.74658203 23.16113281 C21.77309814 23.15702393 20.79961426 23.15291504 19.79663086 23.14868164 C16.17126124 23.12684497 12.54697001 23.07251065 8.92211914 23.00854492 C7.35581834 22.985404 5.78936281 22.97097833 4.22290039 22.96557617 C1.965495 22.95625694 -0.28949018 22.91521048 -2.54638672 22.86816406 C-3.59042915 22.87406303 -3.59042915 22.87406303 -4.65556335 22.88008118 C-8.49253794 22.76593723 -10.15927631 22.23602621 -13.19799805 19.81860352 C-15.76334019 16.50184984 -15.86791899 14.6867949 -15.75341797 10.53613281 C-15.74310547 9.40949219 -15.73279297 8.28285156 -15.72216797 7.12207031 C-15.25341797 4.16113281 -15.25341797 4.16113281 -13.97216797 2.32519531 C-9.80944879 -0.49410086 -4.8427626 0.00693725 0 0 Z " fill="#252424" transform="translate(134.25341796875,735.8388671875)"/>
<path d="M0 0 C1.19625 -0.00773438 2.3925 -0.01546875 3.625 -0.0234375 C7.24460044 0.40387644 9.14578766 1.13989989 12 3.375 C12.97413492 6.29740475 13.13001752 8.17700023 13.14044189 11.21981812 C13.14900711 12.7170919 13.14900711 12.7170919 13.15774536 14.24461365 C13.15886322 15.33871048 13.15998108 16.43280731 13.16113281 17.56005859 C13.16609772 18.71314011 13.17106262 19.86622162 13.17617798 21.054245 C13.19081013 24.87731518 13.19760302 28.70034389 13.203125 32.5234375 C13.20742239 34.50523688 13.2117203 36.48703627 13.2160995 38.46883547 C13.22790939 43.9908054 13.23544755 49.51276526 13.2388947 55.03474653 C13.24337584 62.17353372 13.26092787 69.31212949 13.2898953 76.45085847 C13.311517 81.97112526 13.32159922 87.49133819 13.32293582 93.01164687 C13.32398343 96.30776025 13.33132821 99.60365261 13.34775543 102.89973068 C13.36477578 106.57701956 13.3629453 110.25384026 13.35644531 113.93115234 C13.3656601 115.02120071 13.37487488 116.11124908 13.3843689 117.23432922 C13.33266979 126.55292869 13.33266979 126.55292869 10 130.375 C4.92300426 133.75966383 -1.07918868 133.07441748 -7 132.375 C-10.12719348 130.7287866 -11.42760068 128.51979864 -13 125.375 C-13.0946769 123.79793161 -13.12630039 122.21688573 -13.12698364 120.63697815 C-13.12980347 119.63727997 -13.13262329 118.63758179 -13.13552856 117.60758972 C-13.13350433 116.50675552 -13.1314801 115.40592133 -13.12939453 114.27172852 C-13.13114685 113.11558044 -13.13289917 111.95943237 -13.13470459 110.76824951 C-13.13912122 106.93012001 -13.13618557 103.09203625 -13.1328125 99.25390625 C-13.13348564 96.59594159 -13.1344541 93.93797834 -13.13571167 91.28001404 C-13.13753242 85.70221457 -13.1351298 80.12442832 -13.13037109 74.54663086 C-13.12493132 68.09600722 -13.12668944 61.6454152 -13.1321975 55.19479233 C-13.1367345 49.66014096 -13.13737621 44.12549911 -13.13475883 38.59084648 C-13.13319895 35.28368296 -13.13338633 31.97653759 -13.13629532 28.66937447 C-13.13882634 24.98211638 -13.13497467 21.29491953 -13.12939453 17.60766602 C-13.13141876 16.50885605 -13.13344299 15.41004608 -13.13552856 14.27793884 C-13.13270874 13.27542084 -13.12988892 12.27290283 -13.12698364 11.24000549 C-13.12660662 10.36782159 -13.12622959 9.49563768 -13.12584114 8.59702396 C-13 6.375 -13 6.375 -12 3.375 C-8.06287854 0.29188651 -4.92409122 -0.0318368 0 0 Z " fill="#252525" transform="translate(335,734.625)"/>
<path d="M0 0 C1.2890625 -0.01675781 2.578125 -0.03351562 3.90625 -0.05078125 C9.51697348 0.51638971 12.84921415 3.14017332 16.5 7.3125 C17.8090903 11.23977089 17.70214991 15.01291383 17.73828125 19.109375 C17.746353 19.97637024 17.75442474 20.84336548 17.76274109 21.7366333 C17.77656941 23.57244881 17.78729717 25.4082899 17.79516602 27.24414062 C17.81235093 30.03826263 17.85624412 32.83119244 17.90039062 35.625 C17.91052064 37.41144966 17.91903578 39.19790935 17.92578125 40.984375 C17.94328934 41.81378601 17.96079742 42.64319702 17.97883606 43.4977417 C17.95754003 49.25287514 16.83624494 52.59042439 13.5 57.3125 C9.02729292 60.41925251 4.81356364 60.80493346 -0.5 60.75 C-1.52867187 60.7799707 -1.52867187 60.7799707 -2.578125 60.81054688 C-7.70237835 60.80565732 -10.65899359 59.66779775 -14.5 56.3125 C-17.74151002 51.22963889 -17.94135194 47.01873951 -17.8984375 41.1875 C-17.90130768 40.32237793 -17.90417786 39.45725586 -17.90713501 38.56591797 C-17.90916898 36.74380841 -17.90368593 34.92167669 -17.89111328 33.09960938 C-17.87504981 30.32111479 -17.89098436 27.54407469 -17.91015625 24.765625 C-17.9081737 22.98958014 -17.90432978 21.21353619 -17.8984375 19.4375 C-17.90451019 18.61233887 -17.91058289 17.78717773 -17.9168396 16.93701172 C-17.85680866 11.97905719 -17.1406244 8.66196938 -14.5 4.3125 C-13.84 4.3125 -13.18 4.3125 -12.5 4.3125 C-12.5 3.6525 -12.5 2.9925 -12.5 2.3125 C-8.25882665 0.26531825 -4.68403712 0.01405211 0 0 Z " fill="#F1F1F1" transform="translate(512.5,786.6875)"/>
<path d="M0 0 C3.5625 0.25 3.5625 0.25 6.5625 2.25 C6.88810662 4.9268071 7.02746289 7.38436428 7.0390625 10.06640625 C7.05464203 10.83806625 7.07022156 11.60972626 7.08627319 12.4047699 C7.13388543 14.87400288 7.1615881 17.34295185 7.1875 19.8125 C7.22394049 22.28541909 7.26451428 24.75817539 7.31015015 27.23094177 C7.33746013 28.77109795 7.35877496 30.31137373 7.37368774 31.85169983 C7.10875604 35.3435675 7.10875604 35.3435675 8.5625 38.25 C11.09299402 38.32313567 13.59554837 38.34247527 16.125 38.3125 C16.83591797 38.30798828 17.54683594 38.30347656 18.27929688 38.29882812 C20.04040013 38.28700864 21.80146036 38.26907263 23.5625 38.25 C23.58231934 37.16992676 23.60213867 36.08985352 23.62255859 34.97705078 C23.69851623 30.97746087 23.78724816 26.97823948 23.87988281 22.97900391 C23.91821341 21.24665593 23.95305906 19.51422726 23.984375 17.78173828 C24.02993765 15.29430251 24.08794503 12.80742434 24.1484375 10.3203125 C24.15998871 9.54317902 24.17153992 8.76604553 24.18344116 7.96536255 C24.33475659 2.47774341 24.33475659 2.47774341 26.5625 0.25 C30.89893601 -0.06537716 32.88903229 -0.19897847 36.5625 2.25 C36.95018005 4.53814697 36.95018005 4.53814697 36.96655273 7.43066406 C36.97923691 8.51228821 36.99192108 9.59391235 37.00498962 10.70831299 C37.00205399 11.88222595 36.99911835 13.05613892 36.99609375 14.265625 C37.0013356 15.46934753 37.00657745 16.67307007 37.01197815 17.91326904 C37.01841303 20.46544625 37.01704254 23.01765305 37.00854492 25.56982422 C37.00006464 29.47026789 37.02873086 33.36923355 37.06054688 37.26953125 C37.06215968 39.74739539 37.06157985 42.22526213 37.05859375 44.703125 C37.07544472 46.45184906 37.07544472 46.45184906 37.09263611 48.23590088 C37.0254191 56.07636966 35.85684709 59.94843826 30.22143555 65.59619141 C26.92394852 67.64716718 24.88376434 67.7389372 21.01953125 67.7109375 C19.16231445 67.70513672 19.16231445 67.70513672 17.26757812 67.69921875 C15.98302734 67.67472656 14.69847656 67.65023437 13.375 67.625 C12.07884766 67.62371094 10.78269531 67.62242187 9.44726562 67.62109375 C-0.15667831 67.53082169 -0.15667831 67.53082169 -2.4375 65.25 C-2.75 62.25 -2.75 62.25 -2.4375 59.25 C0.84997416 57.05835056 2.04744825 56.96320614 5.88671875 56.8359375 C7.42875977 56.77792969 7.42875977 56.77792969 9.00195312 56.71875 C10.07380859 56.6878125 11.14566406 56.656875 12.25 56.625 C13.33345703 56.58632813 14.41691406 56.54765625 15.53320312 56.5078125 C18.20946467 56.41349491 20.88571843 56.32789995 23.5625 56.25 C23.8925 53.94 24.2225 51.63 24.5625 49.25 C23.6178186 49.28927612 23.6178186 49.28927612 22.65405273 49.3293457 C19.76962756 49.43399785 16.88560276 49.49853794 14 49.5625 C13.00935547 49.60439453 12.01871094 49.64628906 10.99804688 49.68945312 C4.15327271 49.80315369 0.61150347 48.98041066 -4.4375 44.25 C-5.7444523 40.32914311 -5.59999715 36.58357602 -5.60546875 32.49609375 C-5.60879715 31.63943619 -5.61212555 30.78277863 -5.61555481 29.90016174 C-5.62061502 28.09042905 -5.62296341 26.28068703 -5.62280273 24.47094727 C-5.62499434 21.6946695 -5.64317342 18.91878585 -5.66210938 16.14257812 C-5.6650424 14.38541803 -5.6670278 12.62825604 -5.66796875 10.87109375 C-5.67515427 10.03775009 -5.68233978 9.20440643 -5.68974304 8.34580994 C-5.65808062 0.41149677 -5.65808062 0.41149677 0 0 Z " fill="#292828" transform="translate(625.4375,903.75)"/>
<path d="M0 0 C1.21816406 0.03480469 1.21816406 0.03480469 2.4609375 0.0703125 C3.68683594 0.09738281 3.68683594 0.09738281 4.9375 0.125 C5.87722656 0.15980469 5.87722656 0.15980469 6.8359375 0.1953125 C8.0039079 2.53125329 7.9783604 3.94652655 8.00952148 6.54980469 C8.02301132 7.45124207 8.03650116 8.35267944 8.05039978 9.28143311 C8.06083817 10.25848206 8.07127655 11.23553101 8.08203125 12.2421875 C8.11497877 14.3046916 8.14819025 16.3671915 8.18164062 18.4296875 C8.22899601 21.68616754 8.27340512 24.94263164 8.31274414 28.19921875 C8.35256019 31.33872631 8.40409245 34.47787759 8.45703125 37.6171875 C8.4654454 38.58613953 8.47385956 39.55509155 8.48252869 40.55340576 C8.57145833 45.43778249 8.76132184 49.67172136 10.8359375 54.1953125 C14.24285241 55.89876995 18.01861267 55.42193616 21.7734375 55.4453125 C23.0099707 55.47625 23.0099707 55.47625 24.27148438 55.5078125 C25.46161133 55.51554688 25.46161133 55.51554688 26.67578125 55.5234375 C27.40144287 55.5327832 28.12710449 55.54212891 28.87475586 55.55175781 C31.4692877 55.08020092 32.21469724 54.25685331 33.8359375 52.1953125 C34.30724982 49.88013738 34.30724982 49.88013738 34.26831055 47.26489258 C34.28810471 46.26408157 34.30789886 45.26327057 34.32829285 44.23213196 C34.33468277 43.15392685 34.34107269 42.07572174 34.34765625 40.96484375 C34.36560745 39.85928635 34.38355865 38.75372894 34.40205383 37.6146698 C34.45629177 34.07908965 34.49009642 30.54364554 34.5234375 27.0078125 C34.55659859 24.61261122 34.5910871 22.21742793 34.62695312 19.82226562 C34.71202596 13.94673656 34.78031868 8.07119018 34.8359375 2.1953125 C35.4959375 2.1953125 36.1559375 2.1953125 36.8359375 2.1953125 C36.8359375 1.5353125 36.8359375 0.8753125 36.8359375 0.1953125 C39.8059375 0.1953125 42.7759375 0.1953125 45.8359375 0.1953125 C47.09166261 2.70676272 46.99021764 4.47317467 47.02880859 7.28417969 C47.04487152 8.34578308 47.06093445 9.40738647 47.07748413 10.50115967 C47.12190113 15.36339729 47.16300539 20.22549756 47.18603516 25.08789062 C47.20259108 27.65243608 47.22987588 30.21693547 47.26806641 32.78125 C47.32283303 36.47680632 47.34471094 40.17127999 47.359375 43.8671875 C47.38204437 45.01112976 47.40471375 46.15507202 47.42807007 47.3336792 C47.4044921 56.22049027 47.4044921 56.22049027 44.67822266 59.77832031 C39.60997198 64.08820536 35.76066905 65.57412238 29.1171875 65.59375 C27.85519531 65.59761719 26.59320313 65.60148438 25.29296875 65.60546875 C23.98714844 65.59386719 22.68132812 65.58226562 21.3359375 65.5703125 C20.03011719 65.58191406 18.72429687 65.59351563 17.37890625 65.60546875 C16.11691406 65.60160156 14.85492188 65.59773437 13.5546875 65.59375 C11.83668945 65.58867432 11.83668945 65.58867432 10.08398438 65.58349609 C5.17638877 64.99697497 1.91194362 63.32948111 -1.4765625 59.7578125 C-4.02729085 55.88448427 -4.28973336 52.67157377 -4.30932617 48.09130859 C-4.31570602 47.07700775 -4.32208588 46.06270691 -4.32865906 45.01766968 C-4.32977188 43.92902618 -4.3308847 42.84038269 -4.33203125 41.71875 C-4.33535965 40.59715485 -4.33868805 39.47555969 -4.34211731 38.31997681 C-4.34717691 35.95127777 -4.34952593 33.58257162 -4.34936523 31.21386719 C-4.35155825 27.57735609 -4.36974223 23.94114518 -4.38867188 20.3046875 C-4.3916046 18.00520937 -4.3935902 15.7057298 -4.39453125 13.40625 C-4.40171677 12.31355804 -4.40890228 11.22086609 -4.41630554 10.09506226 C-4.41322891 9.08706573 -4.41015228 8.07906921 -4.40698242 7.04052734 C-4.40840744 6.15102386 -4.40983246 5.26152039 -4.41130066 4.34506226 C-4.05854962 1.27787201 -3.08171336 0.27813297 0 0 Z " fill="#272727" transform="translate(162.1640625,887.8046875)"/>
<path d="M0 0 C1.23073242 -0.03673828 1.23073242 -0.03673828 2.48632812 -0.07421875 C9.63262262 -0.10843884 13.73041589 1.64883123 18.96484375 6.6875 C22.01164323 11.81267859 21.36718731 17.62526849 20.5625 23.375 C18.05815836 26.99238236 15.54715329 28.68284935 11.5625 30.375 C9.27246094 30.60205078 9.27246094 30.60205078 6.796875 30.5703125 C5.90742188 30.56386719 5.01796875 30.55742188 4.1015625 30.55078125 C3.18117188 30.53402344 2.26078125 30.51726563 1.3125 30.5 C0.37664062 30.49097656 -0.55921875 30.48195313 -1.5234375 30.47265625 C-3.82838657 30.44913636 -6.1328116 30.41626853 -8.4375 30.375 C-8.18188677 32.7181213 -7.84479228 35.05343403 -7.4375 37.375 C-4.87150597 38.65799701 -2.93261714 38.55117702 -0.0625 38.62109375 C1.00484375 38.65396484 2.0721875 38.68683594 3.171875 38.72070312 C5.43218936 38.78189827 7.69261276 38.83919045 9.953125 38.89257812 C11.55414063 38.94381836 11.55414063 38.94381836 13.1875 38.99609375 C14.16976562 39.0211499 15.15203125 39.04620605 16.1640625 39.07202148 C18.5625 39.375 18.5625 39.375 20.5625 41.375 C20.52962417 44.10369407 19.99852229 46.6716618 19.5625 49.375 C15.57909695 49.47473852 11.59618892 49.54687198 7.61181641 49.59472656 C5.59902373 49.62446045 3.58657866 49.67531729 1.57421875 49.7265625 C-12.4276192 49.86728449 -12.4276192 49.86728449 -17.4375 45.375 C-22.63195013 39.28991062 -22.10375912 31.45842634 -22.0625 23.875 C-22.09472656 22.69035156 -22.12695312 21.50570312 -22.16015625 20.28515625 C-22.16761189 13.59745163 -21.69337354 8.89776112 -17.11303711 3.81298828 C-12.21828919 -0.38780805 -6.12084494 0.0095713 0 0 Z " fill="#292929" transform="translate(398.4375,903.625)"/>
<path d="M0 0 C1.19496094 -0.00257813 2.38992188 -0.00515625 3.62109375 -0.0078125 C4.87019531 -0.00007812 6.11929687 0.00765625 7.40625 0.015625 C9.27990234 0.00402344 9.27990234 0.00402344 11.19140625 -0.0078125 C12.98384766 -0.00394531 12.98384766 -0.00394531 14.8125 0 C16.45702148 0.00338379 16.45702148 0.00338379 18.13476562 0.00683594 C20.90625 0.265625 20.90625 0.265625 23.90625 2.265625 C24.15625 5.828125 24.15625 5.828125 23.90625 9.265625 C22.26913877 10.90273623 20.35809609 10.45154722 18.1015625 10.51171875 C17.12574219 10.54458984 16.14992188 10.57746094 15.14453125 10.61132812 C13.07692795 10.67229259 11.00921382 10.72961266 8.94140625 10.78320312 C7.96300781 10.81736328 6.98460937 10.85152344 5.9765625 10.88671875 C5.07695801 10.9117749 4.17735352 10.93683105 3.25048828 10.96264648 C0.63807294 11.12412278 0.63807294 11.12412278 -2.09375 13.265625 C-1.74930119 15.73829265 -1.74930119 15.73829265 -1.09375 18.265625 C1.52111334 19.57305667 3.89751438 19.39152434 6.77319336 19.45410156 C18.31374929 19.76006896 18.31374929 19.76006896 22.34375 22.515625 C26.49589074 26.97158091 27.54260879 30.89749535 27.421875 36.9140625 C26.44537287 41.36750402 23.38103746 44.46294343 19.90625 47.265625 C13.90332833 50.17971567 7.75576453 49.59515735 1.21875 49.578125 C-0.65393555 49.60229492 -0.65393555 49.60229492 -2.56445312 49.62695312 C-4.34819336 49.62791992 -4.34819336 49.62791992 -6.16796875 49.62890625 C-7.80125122 49.63337769 -7.80125122 49.63337769 -9.4675293 49.63793945 C-10.76750854 49.4536438 -10.76750854 49.4536438 -12.09375 49.265625 C-14.24290785 46.04188823 -14.47661803 44.99858826 -14.09375 41.265625 C-11.50043436 38.67230936 -10.32955141 38.97882499 -6.71875 38.88671875 C-5.65140625 38.85255859 -4.5840625 38.81839844 -3.484375 38.78320312 C-1.80601562 38.74356445 -1.80601562 38.74356445 -0.09375 38.703125 C2.11469558 38.64333413 4.32304214 38.57972515 6.53125 38.51171875 C8.00464844 38.47582642 8.00464844 38.47582642 9.5078125 38.43920898 C11.91948266 38.41795981 11.91948266 38.41795981 13.90625 37.265625 C13.94879356 35.26607754 13.94705783 33.26520864 13.90625 31.265625 C11.61908483 28.97845983 5.05746852 29.96321384 1.78320312 29.92382812 C-3.62331028 29.73373812 -6.80928597 28.85988662 -11.09375 25.265625 C-13.62448023 22.54988055 -14.96056253 19.77064341 -15.2890625 16.05859375 C-14.96159024 10.40488146 -13.00098929 6.34225328 -9.09375 2.265625 C-5.59245264 -0.06857324 -4.13913161 0.00851673 0 0 Z " fill="#282828" transform="translate(495.09375,903.734375)"/>
<path d="M0 0 C1.60875 0.2784375 1.60875 0.2784375 3.25 0.5625 C5.95294822 1.26610393 5.95294822 1.26610393 8 0 C15.73952095 -0.66029479 21.72084566 -0.80956503 28 4 C28.710354 4.52384277 29.42070801 5.04768555 30.15258789 5.58740234 C32.91240593 9.19154162 32.5562391 12.42841236 32.49609375 16.8515625 C32.49754898 17.70680511 32.49900421 18.56204773 32.50050354 19.44320679 C32.49884634 21.24700333 32.487305 23.05081427 32.46655273 24.85449219 C32.43752778 27.62235131 32.44596048 30.38830331 32.45898438 33.15625 C32.45274899 34.90886351 32.44435961 36.66147096 32.43359375 38.4140625 C32.43652939 39.2442691 32.43946503 40.07447571 32.44248962 40.92984009 C32.40405273 43.25634766 32.40405273 43.25634766 32 47 C29 49 29 49 25.375 48.6875 C22 48 22 48 21 47 C20.85237797 44.60057138 20.76505989 42.22620055 20.71875 39.82421875 C20.70034058 39.10265091 20.68193115 38.38108307 20.66296387 37.63764954 C20.60404619 35.32101826 20.55134074 33.00431084 20.5 30.6875 C20.43221634 27.64958827 20.35844368 24.61190417 20.28125 21.57421875 C20.26767456 20.87616623 20.25409912 20.17811371 20.2401123 19.45890808 C20.15433968 16.087243 19.82532335 13.30129339 19 10 C14.05 10.33 9.1 10.66 4 11 C3.98541748 12.04454346 3.97083496 13.08908691 3.95581055 14.1652832 C3.89784449 18.04014345 3.82061226 21.91442151 3.73754883 25.78881836 C3.70429137 27.46580559 3.67626192 29.14290497 3.65356445 30.82006836 C3.62003263 33.23079225 3.56772022 35.64048762 3.51171875 38.05078125 C3.50213387 39.17592888 3.50213387 39.17592888 3.49235535 40.32380676 C3.40840632 43.29469699 3.3384374 45.48082706 1.69067383 48.00854492 C-1.24341227 49.72916927 -3.83187734 48.74882899 -7 48 C-9.38267356 45.61732644 -9.25475523 45.1148657 -9.2746582 41.87329102 C-9.28419022 41.02223282 -9.29372223 40.17117462 -9.30354309 39.29432678 C-9.30263168 38.37348801 -9.30172028 37.45264923 -9.30078125 36.50390625 C-9.30506638 35.55942123 -9.3093515 34.61493622 -9.31376648 33.64183044 C-9.31951586 31.64200645 -9.32000558 29.64216155 -9.31567383 27.64233398 C-9.31251623 24.57825096 -9.33595726 21.51513525 -9.36132812 18.45117188 C-9.36360125 16.51041789 -9.36430456 14.5696613 -9.36328125 12.62890625 C-9.37709587 11.25068443 -9.37709587 11.25068443 -9.39118958 9.84461975 C-9.38496078 8.99040939 -9.37873199 8.13619904 -9.37231445 7.25610352 C-9.37294388 6.50490738 -9.3735733 5.75371124 -9.3742218 4.97975159 C-8.37231652 -0.32064397 -4.6726543 -0.36648269 0 0 Z " fill="#272626" transform="translate(237,904)"/>
<path d="M0 0 C3.76173765 -0.29503825 6.29204746 -0.36220828 9.6875 1.375 C13.01655341 5.1539255 14.39015299 9.275449 16 14 C16.25523437 14.73605469 16.51046875 15.47210937 16.7734375 16.23046875 C17.89359274 19.53673341 18.95586993 22.85444196 19.96875 26.1953125 C20.3090625 27.28585937 20.649375 28.37640625 21 29.5 C21.4640625 31.03140625 21.4640625 31.03140625 21.9375 32.59375 C22.288125 33.3878125 22.63875 34.181875 23 35 C24.485 35.495 24.485 35.495 26 36 C26.0825 35.0925 26.165 34.185 26.25 33.25 C27.78645368 22.5381046 32.50325622 10.32056555 38 1 C41.49384279 -0.16461426 44.33655389 -0.13568319 48 0 C49 1 49 1 49.23046875 3.62890625 C48.96156542 7.56218716 47.87161676 10.3205062 46.3125 13.9375 C44.09985864 19.19039191 42.11723183 24.44775487 40.375 29.875 C38.18148508 36.60365991 35.94044079 43.08933881 32 49 C29.26878071 49.38717284 26.85896583 49.55524168 24.125 49.5625 C23.40441406 49.59923828 22.68382812 49.63597656 21.94140625 49.67382812 C19.8203125 49.69140625 19.8203125 49.69140625 16 49 C12.32946136 44.99016788 10.75006419 40.14444899 9.0625 35.0625 C8.81016602 34.32539795 8.55783203 33.5882959 8.29785156 32.82885742 C7.52251346 30.55561863 6.75996601 28.27841854 6 26 C5.52490924 24.58848455 5.04965485 23.17702416 4.57421875 21.765625 C3.3709574 18.18097209 2.18413528 14.59101895 1 11 C0.61585938 9.92878906 0.23171875 8.85757813 -0.1640625 7.75390625 C-1.08901938 4.70673521 -0.88814087 3.01967894 0 0 Z " fill="#282827" transform="translate(315,904)"/>
<path d="M0 0 C1.45792884 -0.05399736 2.91642712 -0.09279177 4.375 -0.125 C5.18710937 -0.14820313 5.99921875 -0.17140625 6.8359375 -0.1953125 C9 0 9 0 11 2 C11.1953125 5.2578125 11.1953125 5.2578125 11.125 9.125 C11.10695313 10.40632812 11.08890625 11.68765625 11.0703125 13.0078125 C11.04710937 13.99523437 11.02390625 14.98265625 11 16 C11.90363281 15.94199219 12.80726563 15.88398437 13.73828125 15.82421875 C14.91777344 15.77910156 16.09726562 15.73398437 17.3125 15.6875 C18.48425781 15.62949219 19.65601563 15.57148437 20.86328125 15.51171875 C24 16 24 16 25.9296875 18.37890625 C27 21 27 21 26.8125 23.25 C26 25 26 25 24 26 C21.9625237 26.22858114 19.91959697 26.41024278 17.875 26.5625 C16.83746582 26.63976318 15.79993164 26.71702637 14.73095703 26.79663086 C13.82974121 26.86374268 12.92852539 26.93085449 12 27 C11.94202435 30.93743833 11.90641211 34.87476719 11.875 38.8125 C11.85824219 39.93205078 11.84148438 41.05160156 11.82421875 42.20507812 C11.81777344 43.27822266 11.81132813 44.35136719 11.8046875 45.45703125 C11.79421387 46.44678955 11.78374023 47.43654785 11.77294922 48.45629883 C11.81732596 51.2443952 11.81732596 51.2443952 14 54 C17.05129723 54.51086861 17.05129723 54.51086861 20.5 54.5625 C26.79219288 54.79219288 26.79219288 54.79219288 29 57 C29.25 60 29.25 60 29 63 C26.49422158 65.50577842 24.9059617 65.28673131 21.47851562 65.32226562 C20.76373047 65.31904297 20.04894531 65.31582031 19.3125 65.3125 C18.61705078 65.32861328 17.92160156 65.34472656 17.20507812 65.36132812 C11.59453479 65.36656673 6.96002097 64.43699184 2.48291016 60.75097656 C-2.56014372 55.09484554 -1.7799601 47.72489451 -1.8125 40.5625 C-1.85020508 38.60666992 -1.85020508 38.60666992 -1.88867188 36.61132812 C-1.94735465 33.40724843 -1.98377534 30.20452934 -2 27 C-4.01822917 26.83723958 -6.03645833 26.67447917 -8.0546875 26.51171875 C-10 26 -10 26 -12 23 C-12.25 20.4375 -12.25 20.4375 -12 18 C-10 16 -10 16 -7.8359375 15.8046875 C-6.61777344 15.83949219 -6.61777344 15.83949219 -5.375 15.875 C-4.14910156 15.90207031 -4.14910156 15.90207031 -2.8984375 15.9296875 C-1.95871094 15.96449219 -1.95871094 15.96449219 -1 16 C-1.01160156 15.01257813 -1.02320313 14.02515625 -1.03515625 13.0078125 C-1.04417969 11.72648438 -1.05320312 10.44515625 -1.0625 9.125 C-1.07410156 7.84882812 -1.08570313 6.57265625 -1.09765625 5.2578125 C-1 2 -1 2 0 0 Z " fill="#252524" transform="translate(575,888)"/>
<path d="M0 0 C3.4375 0.1875 3.4375 0.1875 4.4375 1.1875 C6.28327661 0.94823266 8.12876804 0.70653459 9.97265625 0.453125 C21.90680423 -0.83296385 21.90680423 -0.83296385 26.4375 2.1875 C26.75 5.1875 26.75 5.1875 26.4375 8.1875 C24.08391749 10.54108251 23.50781606 10.46621904 20.3046875 10.6015625 C19.09619141 10.65957031 19.09619141 10.65957031 17.86328125 10.71875 C16.60064453 10.76515625 16.60064453 10.76515625 15.3125 10.8125 C14.03826172 10.87050781 14.03826172 10.87050781 12.73828125 10.9296875 C10.63838316 11.02406494 8.53797109 11.10687586 6.4375 11.1875 C6.45844727 12.23204346 6.47939453 13.27658691 6.50097656 14.3527832 C6.57336149 18.22715554 6.61929362 22.1014681 6.65722656 25.97631836 C6.67734565 27.65350392 6.70464451 29.33061931 6.73925781 31.00756836 C6.78776569 33.417982 6.81046464 35.82746872 6.828125 38.23828125 C6.84877014 38.98837967 6.86941528 39.73847809 6.89068604 40.51130676 C6.89292225 45.69615216 6.89292225 45.69615216 4.60839844 48.16088867 C1.69317068 49.53949109 -0.38075133 49.6025107 -3.5625 49.1875 C-5.64022637 46.07091044 -5.81396755 45.37781298 -5.82128906 41.83959961 C-5.82759338 40.9653685 -5.83389771 40.09113739 -5.84039307 39.19041443 C-5.8363446 38.2497261 -5.83229614 37.30903778 -5.828125 36.33984375 C-5.83003845 35.37220596 -5.8319519 34.40456818 -5.83392334 33.40760803 C-5.83528428 31.36247497 -5.83159419 29.31733325 -5.82324219 27.2722168 C-5.81252988 24.13375561 -5.8231466 20.99586535 -5.8359375 17.85742188 C-5.83461612 15.87239456 -5.83205416 13.88736761 -5.828125 11.90234375 C-5.83217346 10.9596312 -5.83622192 10.01691864 -5.84039307 9.04563904 C-5.83408875 8.17456009 -5.82778442 7.30348114 -5.82128906 6.40600586 C-5.81969788 5.63784042 -5.81810669 4.86967499 -5.81646729 4.07823181 C-5.303098 0.2563079 -3.57936724 0.18838775 0 0 Z " fill="#282928" transform="translate(442.5625,903.8125)"/>
<path d="M0 0 C1.06412109 -0.00128906 2.12824219 -0.00257813 3.22460938 -0.00390625 C4.89040039 0.00189453 4.89040039 0.00189453 6.58984375 0.0078125 C7.70423828 0.00394531 8.81863281 0.00007812 9.96679688 -0.00390625 C11.56104492 -0.00197266 11.56104492 -0.00197266 13.1875 0 C14.65135132 0.00169189 14.65135132 0.00169189 16.14477539 0.00341797 C18.52734375 0.1328125 18.52734375 0.1328125 20.52734375 1.1328125 C20.52734375 1.7928125 20.52734375 2.4528125 20.52734375 3.1328125 C22.01234375 3.6278125 22.01234375 3.6278125 23.52734375 4.1328125 C23.55429226 6.09107123 23.57371593 8.04943476 23.58984375 10.0078125 C23.60144531 11.09835937 23.61304688 12.18890625 23.625 13.3125 C23.52734375 16.1328125 23.52734375 16.1328125 22.52734375 18.1328125 C19.04951792 19.29208778 16.33931118 19.24594316 12.671875 19.23046875 C11.67942024 19.22834633 11.67942024 19.22834633 10.66691589 19.22618103 C8.55784547 19.22059246 6.44888198 19.20804215 4.33984375 19.1953125 C2.90820466 19.19029602 1.4765639 19.18573337 0.04492188 19.18164062 C-3.46101164 19.1714785 -6.96671452 19.15190111 -10.47265625 19.1328125 C-10.47265625 13.8528125 -10.47265625 8.5728125 -10.47265625 3.1328125 C-9.81265625 3.1328125 -9.15265625 3.1328125 -8.47265625 3.1328125 C-8.47265625 2.4728125 -8.47265625 1.8128125 -8.47265625 1.1328125 C-5.3844136 0.10339828 -3.23560043 0.00373533 0 0 Z " fill="#F1F1F1" transform="translate(249.47265625,787.8671875)"/>
<path d="M0 0 C3.5625 0.25 3.5625 0.25 6.5625 2.25 C6.94345093 4.14073181 6.94345093 4.14073181 6.95068359 6.46850586 C6.96486832 7.77512428 6.96486832 7.77512428 6.9793396 9.10813904 C6.97326691 10.05085159 6.96719421 10.99356415 6.9609375 11.96484375 C6.96524277 13.41486534 6.96524277 13.41486534 6.96963501 14.8941803 C6.97167888 16.94109685 6.96612653 18.98803279 6.95361328 21.03491211 C6.93758175 24.17150541 6.95344231 27.30680666 6.97265625 30.44335938 C6.97067353 32.42969035 6.96682927 34.41602052 6.9609375 36.40234375 C6.97004654 37.81337624 6.97004654 37.81337624 6.9793396 39.25291443 C6.96988312 40.12714554 6.96042664 41.00137665 6.95068359 41.90209961 C6.94829681 42.67106064 6.94591003 43.44002167 6.94345093 44.23228455 C6.45530317 46.81777051 5.66546056 47.70014682 3.5625 49.25 C0 49.625 0 49.625 -3.4375 49.25 C-5.51522637 46.13341044 -5.68896755 45.44031298 -5.69628906 41.90209961 C-5.70259338 41.0278685 -5.70889771 40.15363739 -5.71539307 39.25291443 C-5.7113446 38.3122261 -5.70729614 37.37153778 -5.703125 36.40234375 C-5.70503845 35.43470596 -5.7069519 34.46706818 -5.70892334 33.47010803 C-5.71028428 31.42497497 -5.70659419 29.37983325 -5.69824219 27.3347168 C-5.68752988 24.19625561 -5.6981466 21.05836535 -5.7109375 17.91992188 C-5.70961612 15.93489456 -5.70705416 13.94986761 -5.703125 11.96484375 C-5.70717346 11.0221312 -5.71122192 10.07941864 -5.71539307 9.10813904 C-5.70908875 8.23706009 -5.70278442 7.36598114 -5.69628906 6.46850586 C-5.69469788 5.70034042 -5.69310669 4.93217499 -5.69146729 4.14073181 C-5.18931307 0.40230171 -3.50658274 0.2550242 0 0 Z " fill="#292929" transform="translate(292.4375,903.75)"/>
<path d="M0 0 C2.05186596 1.54549809 2.89279206 2.43283613 3.3742218 4.97975159 C3.37359238 5.73094772 3.37296295 6.48214386 3.37231445 7.25610352 C3.37854324 8.11031387 3.38477203 8.96452423 3.39118958 9.84461975 C3.38197983 10.7634343 3.37277008 11.68224884 3.36328125 12.62890625 C3.36377975 13.57434799 3.36427826 14.51978973 3.36479187 15.49388123 C3.36245161 17.49195458 3.35272595 19.49003088 3.33618164 21.48803711 C3.31256439 24.55414032 3.3156241 27.61937569 3.32226562 30.68554688 C3.31668979 32.62500521 3.30958051 34.56445986 3.30078125 36.50390625 C3.30214836 37.88516441 3.30214836 37.88516441 3.30354309 39.29432678 C3.29401108 40.14538498 3.28447906 40.99644318 3.2746582 41.87329102 C3.27005081 42.62369156 3.26544342 43.3740921 3.26069641 44.14723206 C3 46 3 46 1 48 C-0.875 48.265625 -0.875 48.265625 -3 48.25 C-3.70125 48.25515625 -4.4025 48.2603125 -5.125 48.265625 C-7 48 -7 48 -9 46 C-9.26069641 44.10253906 -9.26069641 44.10253906 -9.2746582 41.765625 C-9.28419022 40.89131836 -9.29372223 40.01701172 -9.30354309 39.11621094 C-9.30263168 38.17036133 -9.30172028 37.22451172 -9.30078125 36.25 C-9.30506638 35.28094727 -9.3093515 34.31189453 -9.31376648 33.31347656 C-9.31951558 31.26237775 -9.32000579 29.21125854 -9.31567383 27.16015625 C-9.31251272 24.01266928 -9.33596993 20.86612073 -9.36132812 17.71875 C-9.36360085 15.72916786 -9.36430474 13.73958318 -9.36328125 11.75 C-9.372491 10.80415039 -9.38170074 9.85830078 -9.39118958 8.88378906 C-9.38496078 8.00948242 -9.37873199 7.13517578 -9.37231445 6.234375 C-9.37294388 5.46319336 -9.3735733 4.69201172 -9.3742218 3.89746094 C-9.25072861 3.27129883 -9.12723541 2.64513672 -9 2 C-5.53076119 -0.31282587 -4.07794425 -0.42478586 0 0 Z " fill="#262625" transform="translate(547,904)"/>
<path d="M0 0 C3.63 0 7.26 0 11 0 C11 40.92 11 81.84 11 124 C-0.488125 124.474375 -11.97625 124.94875 -23.8125 125.4375 C-27.35718018 125.58501709 -30.90186035 125.73253418 -34.55395508 125.88452148 C-55.69897546 126.75451297 -76.84415897 127.45292955 -98 128 C-92.30203808 125.05396744 -87.01411505 124.83194436 -80.6640625 124.71875 C-79.86648529 124.70034058 -79.06890808 124.68193115 -78.24716187 124.66296387 C-75.70651302 124.6044675 -73.16579832 124.5515678 -70.625 124.5 C-67.28372659 124.43190167 -63.94264283 124.35818319 -60.6015625 124.28125 C-59.84404694 124.26767456 -59.08653137 124.25409912 -58.30606079 124.2401123 C-57.21990982 124.21503601 -57.21990982 124.21503601 -56.11181641 124.18945312 C-55.48514069 124.17692505 -54.85846497 124.16439697 -54.21279907 124.15148926 C-51.12519903 123.94011072 -48.06372254 123.43767465 -45 123 C-27.18 123 -9.36 123 9 123 C9 82.74 9 42.48 9 1 C6.03 1 3.06 1 0 1 C0 0.67 0 0.34 0 0 Z " fill="#B85A5D" transform="translate(622,42)"/>
<path d="M0 0 C19.47 0 38.94 0 59 0 C59 0.66 59 1.32 59 2 C74.18 2 89.36 2 105 2 C105 2.66 105 3.32 105 4 C106.09957031 3.98839844 107.19914062 3.97679687 108.33203125 3.96484375 C116.61536634 3.90482638 124.76128653 4.00352494 133 5 C133 5.33 133 5.66 133 6 C121.98960987 6.2678203 111.05178986 5.89305209 100.06079865 5.22874069 C85.92658153 4.38010443 71.78948468 3.69803681 57.640625 3.1484375 C56.50492569 3.10424431 56.50492569 3.10424431 55.34628296 3.05915833 C49.31437916 2.82585696 43.2821836 2.60113449 37.25 2.375 C19.30625 1.694375 19.30625 1.694375 1 1 C1 41.92 1 82.84 1 125 C0.67 125 0.34 125 0 125 C0 83.75 0 42.5 0 0 Z " fill="#FED8DB" transform="translate(191,41)"/>
<path d="M0 0 C0 0.33 0 0.66 0 1 C-13.1843908 1.95810371 -26.34888177 2.30122376 -39.56274414 2.55224609 C-42.21510374 2.60384013 -44.86729939 2.66101211 -47.51953125 2.71875 C-48.32880569 2.73232544 -49.13808014 2.74590088 -49.97187805 2.7598877 C-53.21963391 2.83238078 -55.89840213 2.96613404 -59 4 C-60.67220971 4.08754798 -62.34772199 4.11765995 -64.0222168 4.11352539 C-65.04304855 4.11344986 -66.06388031 4.11337433 -67.11564636 4.11329651 C-68.21572525 4.10813522 -69.31580414 4.10297394 -70.44921875 4.09765625 C-71.5769722 4.0962413 -72.70472565 4.09482635 -73.86665344 4.09336853 C-77.47362912 4.0877647 -81.08054304 4.07521153 -84.6875 4.0625 C-87.13085848 4.05748549 -89.57421793 4.0529225 -92.01757812 4.04882812 C-98.01173987 4.03779403 -104.00586552 4.02105215 -110 4 C-110 3.67 -110 3.34 -110 3 C-94.68009468 1.97045137 -79.34446211 1.45015132 -64 0.9375 C-62.66166145 0.89220131 -61.32332324 0.84689282 -59.98498535 0.80157471 C-39.98456751 0.12880137 -20.01109085 -0.3057642 0 0 Z " fill="#AE4346" transform="translate(622,43)"/>
<path d="M0 0 C2.47923801 -0.02685095 4.9581884 -0.04676547 7.4375 -0.0625 C8.14455078 -0.07087891 8.85160156 -0.07925781 9.58007812 -0.08789062 C11.38693559 -0.09653588 13.19387603 -0.05220011 15 0 C16 1 16 1 16.25 4.4375 C16.1675 5.613125 16.085 6.78875 16 8 C12.3924497 10.40503353 10.65163611 10.2396541 6.375 10.1875 C5.20710938 10.18105469 4.03921875 10.17460938 2.8359375 10.16796875 C0 10 0 10 -1 9 C-1.23728814 2.47457627 -1.23728814 2.47457627 0 0 Z " fill="#E8E8E8" transform="translate(391,914)"/>
<path d="M0 0 C0.33 0 0.66 0 1 0 C1.33 43.23 1.66 86.46 2 131 C2.66 131.33 3.32 131.66 4 132 C3.01 132.99 3.01 132.99 2 134 C0.125 133.9375 0.125 133.9375 -2 133 C-4.25 130.4375 -4.25 130.4375 -6 128 C-4.35 128 -2.7 128 -1 128 C-0.67 85.76 -0.34 43.52 0 0 Z " fill="#C8242B" transform="translate(412,82)"/>
<path d="M0 0 C6.49616668 -0.02532428 12.99232066 -0.04285601 19.48852539 -0.05493164 C21.69914221 -0.059965 23.90975569 -0.06679217 26.12036133 -0.07543945 C29.295093 -0.08754859 32.46978072 -0.09323825 35.64453125 -0.09765625 C37.13059624 -0.10539818 37.13059624 -0.10539818 38.64668274 -0.11329651 C39.56741074 -0.11337204 40.48813873 -0.11344757 41.43676758 -0.11352539 C42.65255241 -0.11685631 42.65255241 -0.11685631 43.89289856 -0.12025452 C46 0 46 0 49 1 C52.54920113 1.46152836 56.12056701 1.71041797 59.6875 2 C61.26966309 2.13353882 61.26966309 2.13353882 62.88378906 2.26977539 C68.51706802 2.72282172 74.13619045 3.06851508 79.78515625 3.24609375 C80.86901611 3.28025391 81.95287598 3.31441406 83.06958008 3.34960938 C85.15632972 3.40727652 87.24348613 3.45198621 89.33081055 3.48242188 C90.27867432 3.50755859 91.22653809 3.53269531 92.203125 3.55859375 C93.03489258 3.57204834 93.86666016 3.58550293 94.72363281 3.59936523 C97.48245723 4.08491123 98.90514111 5.18579926 101 7 C100.24315918 6.94448975 99.48631836 6.88897949 98.70654297 6.83178711 C87.51621393 6.02102413 76.32145561 5.28309825 65.125 4.5625 C64.11162567 4.49719086 63.09825134 4.43188171 62.0541687 4.36459351 C41.37904701 3.03845756 20.69495966 1.96179329 0 1 C0 0.67 0 0.34 0 0 Z " fill="#DF565D" transform="translate(247,167)"/>
<path d="M0 0 C11.71511525 -0.0463048 23.41426617 0.05136826 35.125 0.375 C35.89161957 0.3954538 36.65823914 0.41590759 37.4480896 0.4369812 C56.6473052 0.95811014 75.82313748 1.95730079 95 3 C95 3.33 95 3.66 95 4 C78.58214726 4.04971592 62.17105677 3.97850016 45.75561523 3.68261719 C43.5274888 3.64392704 41.29929125 3.60915142 39.07104492 3.578125 C25.92426265 3.39482806 13.0181698 2.91519794 0 1 C0 0.67 0 0.34 0 0 Z " fill="#FEDBDE" transform="translate(192,166)"/>
<path d="M0 0 C0.66 0.66 1.32 1.32 2 2 C1.42307692 8.57692308 1.42307692 8.57692308 0 10 C-7.52238806 10.23880597 -7.52238806 10.23880597 -10 9 C-10.1875 5.625 -10.1875 5.625 -10 2 C-6.32653229 -0.44897847 -4.33643601 -0.31537716 0 0 Z " fill="#323232" transform="translate(297,888)"/>
<path d="M0 0 C0.66 0.66 1.32 1.32 2 2 C1.42307692 8.57692308 1.42307692 8.57692308 0 10 C-5.73611111 10.27314815 -5.73611111 10.27314815 -8 10 C-10 8 -10 8 -10.3125 5 C-10.209375 4.01 -10.10625 3.02 -10 2 C-6.32653229 -0.44897847 -4.33643601 -0.31537716 0 0 Z " fill="#313131" transform="translate(548,888)"/>
<path d="M0 0 C9.78716168 -0.2843936 19.51305046 0.47560123 29.26757812 1.171875 C32.09728396 1.37302976 34.92747057 1.56584148 37.7578125 1.7578125 C48.88408863 2.52989339 59.93837027 3.57357895 71 5 C71 5.33 71 5.66 71 6 C67.85418577 6.02888514 64.70840531 6.04675923 61.5625 6.0625 C60.21575195 6.07506836 60.21575195 6.07506836 58.84179688 6.08789062 C57.56079102 6.09272461 57.56079102 6.09272461 56.25390625 6.09765625 C55.46314697 6.10289307 54.6723877 6.10812988 53.85766602 6.11352539 C52 6 52 6 51 5 C49.6224593 4.82481448 48.23683123 4.71244671 46.85083008 4.62695312 C45.52859184 4.54181458 45.52859184 4.54181458 44.17964172 4.45495605 C42.73913704 4.36897156 42.73913704 4.36897156 41.26953125 4.28125 C40.28635422 4.21844849 39.30317719 4.15564697 38.29020691 4.09094238 C35.13123025 3.88957485 31.97191867 3.69430029 28.8125 3.5 C25.67097408 3.30517296 22.5295583 3.10896573 19.38835144 2.90905762 C17.4307924 2.78462182 15.47304147 2.66315991 13.51509094 2.54504395 C8.94903147 2.25620107 4.50111406 1.87151518 0 1 C0 0.67 0 0.34 0 0 Z " fill="#D84249" transform="translate(280,45)"/>
<path d="M0 0 C17.37549993 0.59218246 34.79240571 1.38145304 52 4 C52 4.33 52 4.66 52 5 C46.06 5 40.12 5 34 5 C34 4.34 34 3.68 34 3 C32.82812134 3.01571045 32.82812134 3.01571045 31.63256836 3.03173828 C28.06757874 3.07350208 24.50264078 3.09939098 20.9375 3.125 C19.70837891 3.14175781 18.47925781 3.15851563 17.21289062 3.17578125 C11.09443607 3.20876483 5.75520567 3.17209842 0 1 C0 0.67 0 0.34 0 0 Z " fill="#FEDEE0" transform="translate(296,170)"/>
<path d="M0 0 C0.598125 0.20625 1.19625 0.4125 1.8125 0.625 C1.00110062 0.98233719 0.18970123 1.33967438 -0.64628601 1.70783997 C-3.48177789 3.41220504 -3.48177789 3.41220504 -3.82673645 6.60527039 C-3.83339828 7.82438614 -3.84006012 9.04350189 -3.84692383 10.29956055 C-3.85740753 10.972995 -3.86789124 11.64642944 -3.87869263 12.340271 C-3.90747748 14.56455365 -3.90114817 16.78728298 -3.89453125 19.01171875 C-3.90764442 20.55444798 -3.92294749 22.09716003 -3.94035339 23.6398468 C-3.98026187 27.69891383 -3.9903975 31.75753237 -3.99438477 35.81677246 C-4.00370535 39.95936744 -4.04111199 44.10169767 -4.07617188 48.24414062 C-4.14080705 56.37109852 -4.17399832 64.4977971 -4.1875 72.625 C-4.5175 72.625 -4.8475 72.625 -5.1875 72.625 C-5.25691953 63.40232913 -5.31027008 54.17974778 -5.34293652 44.95687294 C-5.35861243 40.67460548 -5.37988549 36.39251636 -5.41381836 32.11035156 C-5.44634364 27.9801088 -5.4643385 23.85003789 -5.47213173 19.71967697 C-5.47768758 18.14154732 -5.48853646 16.56342739 -5.50469017 14.98537064 C-5.52637438 12.77991439 -5.52947082 10.57517408 -5.52807617 8.36962891 C-5.53473801 7.11276276 -5.54139984 5.85589661 -5.54826355 4.5609436 C-5.42921158 3.59208221 -5.31015961 2.62322083 -5.1875 1.625 C-2.1875 -0.375 -2.1875 -0.375 0 0 Z " fill="#DFDFDE" transform="translate(658.1875,788.375)"/>
<path d="M0 0 C1.95803507 -0.05389087 3.91648909 -0.09274217 5.875 -0.125 C7.51082031 -0.15980469 7.51082031 -0.15980469 9.1796875 -0.1953125 C12 0 12 0 14 2 C14.25 5 14.25 5 14 8 C11.45847921 10.54152079 9.80239017 10.26060808 6.33203125 10.2734375 C5.23955078 10.26183594 5.23955078 10.26183594 4.125 10.25 C3.40441406 10.25773438 2.68382812 10.26546875 1.94140625 10.2734375 C-2.16819045 10.25830086 -4.23335327 9.88332336 -8 8 C-1.4 8 5.2 8 12 8 C11.67 5.69 11.34 3.38 11 1 C7.37 1 3.74 1 0 1 C0 0.67 0 0.34 0 0 Z " fill="#5A5A5A" transform="translate(590,943)"/>
<path d="M0 0 C7.92 0 15.84 0 24 0 C24 0.66 24 1.32 24 2 C27.3 2 30.6 2 34 2 C34 2.66 34 3.32 34 4 C34.99 4.33 35.98 4.66 37 5 C34.07838072 6.46080964 32.33782427 5.47601533 29.1875 4.6875 C19.56562268 2.50025364 9.81997206 1.78295512 0 1 C0 0.67 0 0.34 0 0 Z " fill="#FDC9CD" transform="translate(324,47)"/>
<path d="M0 0 C0 0.33 0 0.66 0 1 C-0.95712891 1.09087891 -0.95712891 1.09087891 -1.93359375 1.18359375 C-2.75988281 1.26738281 -3.58617187 1.35117188 -4.4375 1.4375 C-5.67306641 1.55931641 -5.67306641 1.55931641 -6.93359375 1.68359375 C-8.98662025 1.78930815 -8.98662025 1.78930815 -10 3 C-13.62172742 3.32595547 -17.2445521 3.51380536 -20.875 3.71875 C-23.8649801 3.65135448 -23.8649801 3.65135448 -25 5 C-26.42445647 5.42184715 -27.86545725 5.78869874 -29.3125 6.125 C-30.48232422 6.40730469 -30.48232422 6.40730469 -31.67578125 6.6953125 C-34.10736639 7.01407492 -35.6864786 6.7517621 -38 6 C-25.89692157 0.71772424 -13.10892802 -0.49991675 0 0 Z " fill="#F8DADB" transform="translate(502,172)"/>
<path d="M0 0 C1.06541016 0.02707031 2.13082031 0.05414062 3.22851562 0.08203125 C5.84196823 0.15234836 8.45115175 0.25069562 11.0625 0.375 C11.0625 0.705 11.0625 1.035 11.0625 1.375 C10.44205811 1.3843457 9.82161621 1.39369141 9.18237305 1.40332031 C6.37077323 1.45700995 3.5608402 1.54065646 0.75 1.625 C-0.22646484 1.63917969 -1.20292969 1.65335938 -2.20898438 1.66796875 C-3.14677734 1.70019531 -4.08457031 1.73242188 -5.05078125 1.765625 C-6.34689331 1.7970459 -6.34689331 1.7970459 -7.66918945 1.82910156 C-10.65215118 2.5469901 -11.30311371 3.86243146 -12.9375 6.375 C-13.55625 6.66375 -14.175 6.9525 -14.8125 7.25 C-18.02594286 8.95123445 -19.70628745 11.52400619 -21.9375 14.375 C-21.9375 9.52384215 -19.37932768 6.5653003 -16.0625 3.23046875 C-11.1800678 -0.88175203 -6.09805082 -0.29525013 0 0 Z " fill="#424242" transform="translate(443.9375,767.625)"/>
<path d="M0 0 C0.99 0 1.98 0 3 0 C3.33 1.32 3.66 2.64 4 4 C3.01 3.67 2.02 3.34 1 3 C1 16.2 1 29.4 1 43 C0.67 43 0.34 43 0 43 C0 28.81 0 14.62 0 0 Z " fill="#C6C7C7" transform="translate(396,817)"/>
<path d="M0 0 C0.79075928 0.00523682 1.58151855 0.01047363 2.39624023 0.01586914 C3.67724609 0.02070312 3.67724609 0.02070312 4.98413086 0.02563477 C5.88196289 0.03401367 6.77979492 0.04239258 7.70483398 0.05102539 C8.6065332 0.05553711 9.50823242 0.06004883 10.43725586 0.06469727 C12.67234712 0.07652315 14.90730835 0.09300319 17.14233398 0.11352539 C17.14233398 0.44352539 17.14233398 0.77352539 17.14233398 1.11352539 C16.01589478 1.24198853 16.01589478 1.24198853 14.86669922 1.37304688 C11.43762735 1.76469147 8.00873012 2.1578453 4.57983398 2.55102539 C3.3984082 2.68573242 2.21698242 2.82043945 0.99975586 2.95922852 C-4.63164789 3.60597236 -10.25273708 4.26579018 -15.85766602 5.11352539 C-14.86766602 4.78352539 -13.87766602 4.45352539 -12.85766602 4.11352539 C-12.85766602 3.45352539 -12.85766602 2.79352539 -12.85766602 2.11352539 C-12.14739258 2.05293945 -11.43711914 1.99235352 -10.70532227 1.92993164 C-9.32666992 1.80424805 -9.32666992 1.80424805 -7.92016602 1.67602539 C-7.00364258 1.59481445 -6.08711914 1.51360352 -5.14282227 1.42993164 C-2.72424936 1.09505231 -2.32067695 0.14182084 0 0 Z " fill="#FAD8D9" transform="translate(479.857666015625,46.886474609375)"/>
<path d="M0 0 C2.91722548 -0.08103404 5.83219516 -0.14051081 8.75 -0.1875 C9.575 -0.21263672 10.4 -0.23777344 11.25 -0.26367188 C17.42297754 -0.33834499 17.42297754 -0.33834499 20.578125 1.51171875 C21.28195312 2.24841797 21.28195312 2.24841797 22 3 C14.6379306 2.5140207 7.30899482 2.02325928 0 1 C0 0.67 0 0.34 0 0 Z " fill="#DC464E" transform="translate(326,171)"/>
<path d="M0 0 C1.95803507 -0.05389087 3.91648909 -0.09274217 5.875 -0.125 C7.51082031 -0.15980469 7.51082031 -0.15980469 9.1796875 -0.1953125 C12 0 12 0 14 2 C14.125 5.125 14.125 5.125 14 8 C13.34 8 12.68 8 12 8 C11.67 5.69 11.34 3.38 11 1 C7.37 1 3.74 1 0 1 C0 0.67 0 0.34 0 0 Z " fill="#414141" transform="translate(590,943)"/>
<path d="M0 0 C0.47953125 0.31710937 0.9590625 0.63421875 1.453125 0.9609375 C5.16222106 2.47415767 8.77809202 2.46691411 12.75 2.625 C13.93916016 2.68300781 13.93916016 2.68300781 15.15234375 2.7421875 C17.10119416 2.836108 19.05056451 2.91912822 21 3 C21 3.33 21 3.66 21 4 C11.595 4.495 11.595 4.495 2 5 C1.34 3.35 0.68 1.7 0 0 Z " fill="#2E2E2D" transform="translate(492,921)"/>
<path d="M0 0 C5.75 -0.125 5.75 -0.125 8 1 C8 1.66 8 2.32 8 3 C8.66 3.33 9.32 3.66 10 4 C9.34 4.66 8.68 5.32 8 6 C6.125 5.9375 6.125 5.9375 4 5 C1.75 2.4375 1.75 2.4375 0 0 Z " fill="#D0444B" transform="translate(406,210)"/>
<path d="M0 0 C6.12418104 0.65150862 13.50355658 1.50355658 18 6 C13.95295419 5.27595226 10.10929598 4.16553713 6.1875 2.9375 C5.02605469 2.57527344 3.86460937 2.21304688 2.66796875 1.83984375 C1.78753906 1.56269531 0.90710938 1.28554688 0 1 C0 0.67 0 0.34 0 0 Z " fill="#D9454D" transform="translate(352,51)"/>
<path d="M0 0 C-2.25170312 2.25170312 -3.32987578 2.51474 -6.375 3.1875 C-7.53128906 3.45626953 -7.53128906 3.45626953 -8.7109375 3.73046875 C-11.11082272 4.01304909 -12.71670535 3.73503321 -15 3 C-13.25531628 2.29911844 -11.50398839 1.61475991 -9.75 0.9375 C-8.77546875 0.55464844 -7.8009375 0.17179688 -6.796875 -0.22265625 C-3.95992605 -1.01113787 -2.70590448 -1.02437812 0 0 Z " fill="#F1C9CB" transform="translate(479,175)"/>
<path d="M0 0 C5.28798182 0.41474367 8.11690718 1.35224614 12 5 C7.25081338 4.53439347 3.89217595 3.83067342 0 1 C0 0.67 0 0.34 0 0 Z " fill="#454544" transform="translate(481,861)"/>
<path d="M0 0 C0.66 0.33 1.32 0.66 2 1 C-6.261959 6.74031891 -6.261959 6.74031891 -11 6 C-7.57874946 3.12614955 -4.16111563 1.54115394 0 0 Z " fill="#B65154" transform="translate(456,55)"/>
<path d="M0 0 C0.66 0.33 1.32 0.66 2 1 C0.90716423 2.03295436 -0.19970579 3.05107835 -1.3125 4.0625 C-1.92738281 4.63097656 -2.54226563 5.19945312 -3.17578125 5.78515625 C-3.77777344 6.18605469 -4.37976563 6.58695313 -5 7 C-5.99 6.67 -6.98 6.34 -8 6 C-5.36 4.02 -2.72 2.04 0 0 Z " fill="#F8D7D8" transform="translate(445,189)"/>
<path d="M0 0 C0.625 1.8125 0.625 1.8125 1 4 C0.01 5.485 0.01 5.485 -1 7 C-1.38499891 8.65549531 -1.72793135 10.3222433 -2 12 C-2.33 12 -2.66 12 -3 12 C-2.88541307 10.56163249 -2.75790884 9.12429034 -2.625 7.6875 C-2.55539062 6.88699219 -2.48578125 6.08648438 -2.4140625 5.26171875 C-2 3 -2 3 0 0 Z " fill="#4E4E4E" transform="translate(483,910)"/>
<path d="M0 0 C-3.42346555 3.14958831 -6.44262737 3.56179109 -11 4 C-4.625 -0.25 -4.625 -0.25 0 0 Z " fill="#181617" transform="translate(613,770)"/>
<path d="M0 0 C0.66 0.33 1.32 0.66 2 1 C-1.465 3.97 -1.465 3.97 -5 7 C-5.66 6.67 -6.32 6.34 -7 6 C-4.69 4.02 -2.38 2.04 0 0 Z " fill="#F6D0D2" transform="translate(434,197)"/>
<path d="M0 0 C2.8125 0.1875 2.8125 0.1875 6 1 C7.875 3.5625 7.875 3.5625 9 6 C5.06326356 4.68775452 2.77280706 3.08089673 0 0 Z " fill="#DC474F" transform="translate(372,184)"/>
</svg>
